<svg width="46" height="46" viewBox="0 0 46 46" fill="none" xmlns="http://www.w3.org/2000/svg">
<g filter="url(#filter0_d)">
<circle cx="23" cy="23" r="22" fill="#8E3FFE"/>
</g>
<g clip-path="url(#clip0)">
<path d="M34.0658 29.4891H32.3211L28.8685 20.0518C28.7009 19.5938 28.2607 19.2861 27.773 19.2861H24.7465V16.6019C24.7465 16.4267 24.6777 16.2451 24.5449 16.1103L19.0339 10.5238C18.4888 9.97183 17.5998 9.97197 17.0549 10.5238C17.0548 10.5239 17.0547 10.5239 17.0546 10.524L11.5438 16.1104C11.4135 16.2425 11.3422 16.4231 11.3422 16.6019C11.3422 16.8425 11.3424 30.9071 11.3424 33.3029C11.3424 33.6894 11.6557 34.0027 12.0422 34.0027C12.4288 34.0027 12.7421 33.6894 12.7421 33.3029V26.4407H14.3047C14.3044 27.2894 14.3044 29.1421 14.3053 33.2033V33.3055C14.3053 33.692 14.6186 34.0054 15.0052 34.0054H21.0835C21.47 34.0054 21.7834 33.692 21.7834 33.3055V33.2195C21.7839 29.1451 21.784 27.2891 21.7837 26.4407H23.3469V33.2997C23.3469 33.6862 23.6602 33.9996 24.0467 33.9996C24.4333 33.9996 24.7466 33.6862 24.7466 33.2997V25.7408C24.7466 25.7392 24.7464 25.7378 24.7464 25.7362V23.5477H25.7083L29.1645 33.2253C29.3299 33.6884 29.7714 33.9995 30.2631 33.9995H34.0656C34.7089 33.9995 35.2321 33.4762 35.2321 32.833V30.6555C35.2323 30.0124 34.709 29.4891 34.0658 29.4891ZM18.0444 11.5139L22.3731 15.902H13.7157L18.0444 11.5139ZM20.3838 32.6056H15.705C15.7048 31.7384 15.7047 30.9423 15.7046 30.223H20.384C20.3839 31.1102 20.3838 31.9644 20.3838 32.6056ZM20.3841 28.8232H15.7044C15.7043 27.7692 15.7044 26.9627 15.7045 26.4407H20.3841C20.3842 27.0138 20.3842 27.883 20.3841 28.8232ZM20.3839 25.0409H15.7054C15.7058 24.3796 15.7064 23.4761 15.7073 23.3715C15.7614 22.1168 16.7863 21.1353 18.0444 21.1353C19.3123 21.1353 20.3385 22.1246 20.3838 23.3886C20.384 23.4326 20.3844 23.6985 20.3839 25.0409ZM23.3467 25.0409C21.2807 25.0409 22.5493 25.0409 21.7837 25.0409C21.7843 23.3876 21.7837 23.368 21.7831 23.3501C21.7512 22.3775 21.3479 21.4683 20.6476 20.7898C19.9459 20.1099 19.0214 19.7355 18.0444 19.7355C16.0292 19.7355 14.388 21.312 14.3083 23.3247C14.3067 23.3656 14.3059 24.342 14.3055 25.0409C13.7233 25.0409 13.3189 25.0409 12.742 25.0409V17.3018H23.3467V25.0409H23.3467ZM33.8325 32.5998H30.4277L26.9714 22.9221C26.806 22.4591 26.3646 22.148 25.8728 22.148H24.7465V20.686H27.61L31.0626 30.1232C31.2301 30.5812 31.6704 30.8889 32.1581 30.8889H33.8325V32.5998Z" fill="white"/>
</g>
<defs>
<filter id="filter0_d" x="0.455547" y="0" width="45.0889" height="45.0889" filterUnits="userSpaceOnUse" color-interpolation-filters="sRGB">
<feFlood flood-opacity="0" result="BackgroundImageFix"/>
<feColorMatrix in="SourceAlpha" type="matrix" values="0 0 0 0 0 0 0 0 0 0 0 0 0 0 0 0 0 0 127 0"/>
<feOffset dy="0.544453"/>
<feGaussianBlur stdDeviation="0.272226"/>
<feColorMatrix type="matrix" values="0 0 0 0 0 0 0 0 0 0 0 0 0 0 0 0 0 0 0.15 0"/>
<feBlend mode="normal" in2="BackgroundImageFix" result="effect1_dropShadow"/>
<feBlend mode="normal" in="SourceGraphic" in2="effect1_dropShadow" result="shape"/>
</filter>
<clipPath id="clip0">
<rect width="23.8956" height="23.8956" fill="white" transform="translate(11.3394 10.1096)"/>
</clipPath>
</defs>
</svg>
