<svg width="613" height="474" viewBox="0 0 613 474" fill="none" xmlns="http://www.w3.org/2000/svg">
<rect x="404.383" y="57.0846" width="194.644" height="194.459" transform="rotate(90 404.383 57.0846)" fill="white"/>
<rect x="377.159" y="88.2276" width="132.358" height="136.121" transform="rotate(90 377.159 88.2276)" fill="#A7DAFF"/>
<rect x="470.5" y="177.764" width="116.786" height="116.675" transform="rotate(90 470.5 177.764)" fill="#8E3FFE"/>
<rect x="256.594" y="205.014" width="81.7505" height="81.6728" transform="rotate(90 256.594 205.014)" fill="#FF8D8D"/>
<rect x="225.481" y="84.3354" width="81.7505" height="81.6728" transform="rotate(90 225.481 84.3354)" fill="#313131"/>
<rect x="447.164" y="18.1562" width="42.8217" height="42.781" transform="rotate(90 447.164 18.1562)" fill="#2B2D33"/>
<rect x="237.148" y="49.2994" width="50.6074" height="50.5594" transform="rotate(90 237.148 49.2994)" fill="#8E3FFE"/>
<rect x="427.718" y="37.6206" width="70.0718" height="70.0053" transform="rotate(90 427.718 37.6206)" fill="#FFDA57"/>
<rect x="439.386" y="271.193" width="54.5003" height="54.4485" transform="rotate(90 439.386 271.193)" fill="#FFDA57"/>
<rect x="357.713" y="14.2629" width="23.3573" height="23.3351" transform="rotate(90 357.713 14.2629)" fill="#40C3AB"/>
<rect x="190.479" y="263.407" width="35.0359" height="35.0027" transform="rotate(90 190.479 263.407)" fill="#40C3AB"/>
<path d="M53.8203 392.894C63.4421 392.894 71.4499 396.156 77.8437 402.68C84.2996 409.142 87.5275 417.22 87.5275 426.913C87.5275 436.606 84.3306 444.715 77.9368 451.239C71.543 457.702 63.5041 460.933 53.8203 460.933C45.6883 460.933 38.6737 458.478 32.7765 453.57C26.9414 448.661 23.2789 442.137 21.7891 433.997H35.9424C37.246 438.16 39.4807 441.453 42.6466 443.876C45.8745 446.3 49.5991 447.511 53.8203 447.511C58.3518 447.511 62.2936 446.206 65.6457 443.597C69.0599 440.987 71.3567 437.507 72.5362 433.158H47.5816V420.575H72.5362C71.3567 416.288 69.0599 412.839 65.6457 410.23C62.2936 407.62 58.3518 406.315 53.8203 406.315C49.7233 406.315 46.1228 407.433 43.019 409.67C39.9152 411.907 37.6184 414.983 36.1286 418.898H22.0684C23.8686 410.882 27.6242 404.544 33.3352 399.884C39.0462 395.224 45.8745 392.894 53.8203 392.894Z" fill="#2B2D33"/>
<path d="M149.907 446.393H156.239V471.092H143.203V459.535H104.654V471.092H91.618V446.393H96.8324C97.7635 445.647 98.5395 444.839 99.1602 443.97C99.8431 443.1 100.464 441.733 101.023 439.869C101.643 437.942 102.14 435.985 102.512 433.997C102.885 431.946 103.288 428.808 103.723 424.583C104.219 420.358 104.654 416.164 105.026 412C105.399 407.775 105.895 401.872 106.516 394.292H149.907V446.393ZM118.714 407.433C117.969 419.488 117.069 428.342 116.014 433.997C114.959 439.589 113.407 443.721 111.358 446.393H135.847V407.433H118.714Z" fill="#2B2D33"/>
<path d="M181.815 446.393H207.794V459.535H167.662V394.292H206.769V407.34H181.815V420.202H204.348V432.971H181.815V446.393Z" fill="#2B2D33"/>
<path d="M231.872 394.292H275.17V459.535H261.11V407.433H244.163L241.091 435.674C240.222 443.752 237.894 449.779 234.107 453.756C230.383 457.733 225.106 459.721 218.278 459.721H214.646V445.927H218.371C223.399 445.927 226.286 442.727 227.03 436.327L231.872 394.292Z" fill="#2B2D33"/>
<path d="M315.383 414.051C319.914 414.051 323.949 415.014 327.487 416.94C331.088 418.867 333.881 421.569 335.868 425.049C337.916 428.467 338.94 432.381 338.94 436.793C338.94 443.441 336.737 448.909 332.329 453.197C327.922 457.422 322.273 459.535 315.383 459.535H290.056V394.292H304.209V414.051H315.383ZM314.358 446.3C317.338 446.3 319.759 445.43 321.621 443.69C323.546 441.888 324.508 439.589 324.508 436.793C324.508 434.929 324.073 433.282 323.204 431.853C322.397 430.424 321.218 429.305 319.666 428.498C318.114 427.69 316.345 427.286 314.358 427.286H304.209V446.3H314.358Z" fill="#2B2D33"/>
<path d="M387.998 425.142C390.854 426.634 393.057 428.746 394.609 431.48C396.223 434.152 397.03 437.228 397.03 440.707C397.03 445.927 395.013 450.37 390.978 454.036C387.005 457.702 382.194 459.535 376.545 459.535H348.797V394.292H375.8C381.387 394.292 386.043 395.907 389.767 399.138C393.492 402.307 395.354 406.284 395.354 411.068C395.354 413.865 394.703 416.505 393.399 418.991C392.095 421.476 390.295 423.527 387.998 425.142ZM381.667 413.305C381.667 412.249 381.48 411.317 381.108 410.509C380.798 409.639 380.332 408.894 379.711 408.272C379.09 407.651 378.314 407.185 377.383 406.874C376.514 406.501 375.521 406.315 374.404 406.315H362.671V420.202H374.404C376.638 420.202 378.408 419.581 379.711 418.338C381.015 417.034 381.667 415.356 381.667 413.305ZM375.149 446.579C377.445 446.579 379.308 445.896 380.735 444.529C382.163 443.162 382.877 441.391 382.877 439.216C382.877 437.103 382.163 435.364 380.735 433.997C379.308 432.63 377.445 431.946 375.149 431.946H362.671V446.579H375.149Z" fill="#2B2D33"/>
<path d="M422.693 446.393H448.672V459.535H408.539V394.292H447.647V407.34H422.693V420.202H445.226V432.971H422.693V446.393Z" fill="#2B2D33"/>
<path d="M473.123 387.115V376.583H501.15V387.115H473.123ZM504.409 394.292H514.652V459.535H500.498V420.296L470.329 459.535H460.552V394.292H474.706V433.065L504.409 394.292Z" fill="#2B2D33"/>
<path d="M559.459 460.933C553.189 460.933 547.478 459.473 542.326 456.552C537.174 453.57 533.139 449.5 530.221 444.342C527.304 439.123 525.845 433.344 525.845 427.006C525.845 417.313 529.042 409.204 535.436 402.68C541.891 396.156 549.899 392.894 559.459 392.894C567.405 392.894 574.264 395.286 580.037 400.07C585.81 404.855 589.473 411.131 591.025 418.898H576.871C576.002 416.35 574.73 414.144 573.054 412.28C571.378 410.354 569.36 408.894 567.001 407.899C564.704 406.843 562.19 406.315 559.459 406.315C553.934 406.315 549.31 408.303 545.585 412.28C541.922 416.195 540.091 421.103 540.091 427.006C540.091 432.847 541.922 437.725 545.585 441.639C549.31 445.554 553.934 447.511 559.459 447.511C563.742 447.511 567.436 446.3 570.54 443.876C573.643 441.453 575.785 438.16 576.964 433.997H591.211C589.721 442.074 586.059 448.599 580.223 453.57C574.45 458.478 567.529 460.933 559.459 460.933Z" fill="#2B2D33"/>
</svg>
