<svg width="100" height="100" viewBox="0 0 100 100" fill="none" xmlns="http://www.w3.org/2000/svg">
<path d="M81.2352 5.8375L67.6109 5.85938C64.9553 2.30508 60.716 0 55.9482 0H44.0537C39.2859 0 35.0467 2.30508 32.391 5.85938C15.8018 5.83281 19.24 5.8375 18.7555 5.8375C15.0139 5.8375 11.9199 8.86055 11.9199 12.6734V93.1641C11.9199 96.9334 14.9865 100 18.7559 100H81.2459C85.0152 100 88.0818 96.9334 88.0818 93.1641V12.6734C88.082 8.92363 85.0559 5.8375 81.2352 5.8375ZM44.0537 5.85938H55.9482C59.7131 5.85938 62.9266 8.26562 64.1314 11.6211H35.8703C37.0752 8.26562 40.2887 5.85938 44.0537 5.85938ZM82.2227 93.1641C82.2227 93.7025 81.7846 94.1406 81.2461 94.1406H18.7559C18.2174 94.1406 17.7793 93.7025 17.7793 93.1641C17.9713 6.45683 17.1279 12.1951 18.7572 11.6969L29.7824 11.7146C29.6004 12.6324 29.5029 13.5805 29.5029 14.551C29.5029 16.1689 30.8146 17.4807 32.4326 17.4807H67.5693C69.1873 17.4807 70.499 16.1689 70.499 14.551C70.499 13.5805 70.4016 12.6324 70.2195 11.7146C70.2426 11.7146 81.267 11.6969 81.2463 11.6969C81.7848 11.6969 82.2227 12.133 82.2227 12.6734V93.1641Z" fill="#474A54"/>
<path d="M73.4277 23.6328H50C48.382 23.6328 47.0703 24.9445 47.0703 26.5625C47.0703 28.1805 48.382 29.4922 50 29.4922H73.4277C75.0457 29.4922 76.3574 28.1805 76.3574 26.5625C76.3574 24.9445 75.0457 23.6328 73.4277 23.6328Z" fill="#474A54"/>
<path d="M50 41.1133H67.5781C69.1961 41.1133 70.5078 39.8016 70.5078 38.1836C70.5078 36.5656 69.1961 35.2539 67.5781 35.2539H50C48.382 35.2539 47.0703 36.5656 47.0703 38.1836C47.0703 39.8016 48.382 41.1133 50 41.1133Z" fill="#474A54"/>
<path d="M38.1953 23.6328H26.5742C24.9562 23.6328 23.6445 24.9445 23.6445 26.5625V38.1836C23.6445 39.8016 24.9562 41.1133 26.5742 41.1133H38.1953C39.8133 41.1133 41.125 39.8016 41.125 38.1836V26.5625C41.125 24.9445 39.8133 23.6328 38.1953 23.6328ZM35.2656 35.2539H29.5039V29.4922H35.2656V35.2539Z" fill="#474A54"/>
<path d="M73.4277 47.1191H50C48.382 47.1191 47.0703 48.4309 47.0703 50.0488C47.0703 51.6668 48.382 52.9785 50 52.9785H73.4277C75.0457 52.9785 76.3574 51.6668 76.3574 50.0488C76.3574 48.4309 75.0457 47.1191 73.4277 47.1191Z" fill="#474A54"/>
<path d="M50 64.5996H67.5781C69.1961 64.5996 70.5078 63.2879 70.5078 61.6699C70.5078 60.052 69.1961 58.7402 67.5781 58.7402H50C48.382 58.7402 47.0703 60.052 47.0703 61.6699C47.0703 63.2879 48.382 64.5996 50 64.5996Z" fill="#474A54"/>
<path d="M38.1953 47.1191H26.5742C24.9562 47.1191 23.6445 48.4309 23.6445 50.0488V61.6699C23.6445 63.2879 24.9562 64.5996 26.5742 64.5996H38.1953C39.8133 64.5996 41.125 63.2879 41.125 61.6699V50.0488C41.125 48.4309 39.8133 47.1191 38.1953 47.1191ZM35.2656 58.7402H29.5039V52.9785H35.2656V58.7402Z" fill="#474A54"/>
<path d="M73.4277 70.6543H50C48.382 70.6543 47.0703 71.966 47.0703 73.584C47.0703 75.202 48.382 76.5137 50 76.5137H73.4277C75.0457 76.5137 76.3574 75.202 76.3574 73.584C76.3574 71.966 75.0457 70.6543 73.4277 70.6543Z" fill="#474A54"/>
<path d="M67.5781 82.2754H50C48.382 82.2754 47.0703 83.5871 47.0703 85.2051C47.0703 86.823 48.382 88.1348 50 88.1348H67.5781C69.1961 88.1348 70.5078 86.823 70.5078 85.2051C70.5078 83.5871 69.1961 82.2754 67.5781 82.2754Z" fill="#474A54"/>
<path d="M38.1953 70.6543H26.5742C24.9562 70.6543 23.6445 71.966 23.6445 73.584V85.2051C23.6445 86.823 24.9562 88.1348 26.5742 88.1348H38.1953C39.8133 88.1348 41.125 86.823 41.125 85.2051V73.584C41.125 71.966 39.8133 70.6543 38.1953 70.6543ZM35.2656 82.2754H29.5039V76.5137H35.2656V82.2754Z" fill="#474A54"/>
</svg>
