<svg width="100" height="100" viewBox="0 0 100 100" fill="none" xmlns="http://www.w3.org/2000/svg">
<g clip-path="url(#clip0)">
<path d="M96.7682 96.7363C95.4072 84.8633 87.257 75.2751 76.4592 71.664V46.9604H85.2444C86.8623 46.9604 88.174 45.6486 88.174 44.0307V26.5624C88.174 24.9444 86.8623 23.6327 85.2444 23.6327H76.3126C74.9165 10.3703 63.6675 0 50.0414 0C36.4153 0 25.1663 10.3703 23.7704 23.6327H14.9321C13.3142 23.6327 12.0025 24.9444 12.0025 26.5624V50.5076C12.0025 54.9392 15.6079 58.5447 20.0393 58.5447H23.6235V71.6446C12.8755 75.2192 4.70699 84.7249 3.26188 96.4969L3.23512 96.7127C3.02086 98.459 4.38277 99.9998 6.14663 99.9998C7.60541 99.9996 8.86869 98.9115 9.05072 97.4268L9.07748 97.2109C10.5636 85.1051 20.8819 75.9763 33.0787 75.9763H38.3795V76.1227C38.3795 82.5844 43.6365 87.8414 50.0982 87.8414C56.5599 87.8414 61.8169 82.5844 61.8169 76.1227V75.9763H66.9233C79.2188 75.9763 89.5469 85.1879 90.9473 97.4035C91.1186 98.8977 92.3856 99.9998 93.8543 99.9998C95.6059 99.9998 96.9678 98.4771 96.7682 96.7363ZM57.9156 62.8673C57.8341 62.896 57.7542 62.9275 57.6763 62.963C50.2646 65.9077 41.6486 64.2933 35.7606 58.5447H53.0277C54.6457 58.5447 55.9574 57.233 55.9574 55.615C55.9574 53.9971 54.6457 52.6853 53.0277 52.6853C53.008 52.6853 29.5026 52.6615 29.4829 52.6635C29.4831 52.6437 29.4926 33.7874 29.4926 33.7653C29.4926 28.6766 33.2813 24.4319 38.1209 23.5548C41.5863 30.5475 48.7998 35.1073 56.7214 35.1073H70.5999V43.8904C70.6058 52.6363 65.1901 59.8693 57.9156 62.8673ZM82.3147 41.101H76.4592V29.4921H82.3147V41.101ZM50.0414 5.85935C61.1199 5.85935 70.596 14.7624 70.596 26.5624C70.596 26.5823 70.5997 29.2278 70.5999 29.2479H56.7214C50.4873 29.2479 44.8643 25.3128 42.7291 19.4554C42.3076 18.2988 41.2076 17.5292 39.9766 17.5292C36.3432 17.5292 32.985 18.729 30.2768 20.7528C32.7428 12.163 40.6697 5.85935 50.0414 5.85935ZM17.8618 29.4921H23.6235V41.2108H17.8618V29.4921ZM20.0395 52.6853C18.839 52.6853 17.862 51.7084 17.862 50.5076V47.0701H23.6237V52.6853H20.0395ZM29.4829 70.3327V60.3212C31.9051 63.354 34.9528 65.797 38.3793 67.5011V70.1169C33.9004 70.1597 32.2893 69.9954 29.4829 70.3327ZM50.098 81.9821C46.8672 81.9821 44.2387 79.3536 44.2387 76.1227V69.5964C48.1428 70.4923 52.15 70.4732 55.9574 69.6136V76.1227C55.9574 79.3536 53.3289 81.9821 50.098 81.9821ZM61.8167 70.1169V67.5298C65.0798 65.9077 68.1081 63.5472 70.5999 60.4767V70.3415C67.7534 69.9935 66.1771 70.1612 61.8167 70.1169Z" fill="#474A54"/>
<path d="M26.6699 87.2808C25.052 87.2808 23.7402 88.5925 23.7402 90.2104V96.0698C23.7402 97.6878 25.052 98.9995 26.6699 98.9995C28.2879 98.9995 29.5996 97.6878 29.5996 96.0698V90.2104C29.5996 88.5925 28.2879 87.2808 26.6699 87.2808Z" fill="#474A54"/>
<path d="M95.9297 96.9297C95.9297 95.3117 94.618 94 93 94L6.92969 94C5.31172 94 4 95.3117 4 96.9297C4 98.5477 5.31172 99.8594 6.92969 99.8594L93 99.8594C94.618 99.8594 95.9297 98.5477 95.9297 96.9297Z" fill="#474A54"/>
<path d="M73.4277 87.2808C71.8098 87.2808 70.498 88.5925 70.498 90.2104V96.0698C70.498 97.6878 71.8098 98.9995 73.4277 98.9995C75.0457 98.9995 76.3574 97.6878 76.3574 96.0698V90.2104C76.3574 88.5925 75.0459 87.2808 73.4277 87.2808Z" fill="#474A54"/>
</g>
<defs>
<clipPath id="clip0">
<rect width="100" height="100" fill="white"/>
</clipPath>
</defs>
</svg>
