<svg width="244" height="244" viewBox="0 0 244 244" fill="none" xmlns="http://www.w3.org/2000/svg">
<g clip-path="url(#clip0)">
<path d="M134.708 205.875H27.9583C16.7242 205.875 7.625 196.776 7.625 185.542V27.9583C7.625 16.7242 16.7242 7.625 27.9583 7.625H134.708C145.942 7.625 155.042 16.7242 155.042 27.9583V185.542C155.042 196.776 145.942 205.875 134.708 205.875Z" fill="#ECEFF1"/>
<path d="M236.375 183V213.5C236.375 226.107 210.247 236.375 177.917 236.375C145.587 236.375 119.458 226.107 119.458 213.5V183H236.375Z" fill="#FFC107"/>
<path d="M236.375 155.042V190.32C224.683 200.588 201.198 205.875 177.917 205.875C154.635 205.875 131.15 200.588 119.458 190.32V155.042H236.375Z" fill="#FFD54F"/>
<path d="M236.375 152.5V166.733C225.293 176.392 203.232 183 177.917 183C152.602 183 130.54 176.392 119.458 166.733V152.5C119.458 139.893 145.587 129.625 177.917 129.625C210.247 129.625 236.375 139.893 236.375 152.5Z" fill="#FFD54F"/>
<path d="M99.125 58.4583H124.542V144.875H99.125V58.4583Z" fill="#2196F3"/>
<path d="M60.3594 99.125H41.2969C38.1351 99.125 35.5833 101.687 35.5833 104.849V139.161C35.5833 142.323 38.1452 144.885 41.2969 144.885H60.3594C63.5212 144.885 66.0832 142.323 66.0832 139.161V104.849C66.0832 101.687 63.5212 99.125 60.3594 99.125Z" fill="#64B5F6"/>
<path d="M73.7083 213.5H27.9583C12.5355 213.5 0 200.965 0 185.542V27.9583C0 12.5355 12.5355 0 27.9583 0H134.708C150.131 0 162.667 12.5355 162.667 27.9583V94.0417C162.667 98.2507 159.251 101.667 155.042 101.667C150.833 101.667 147.417 98.2507 147.417 94.0417V27.9583C147.417 20.9535 141.713 15.25 134.708 15.25H27.9583C20.9535 15.25 15.25 20.9535 15.25 27.9583V185.542C15.25 192.547 20.9535 198.25 27.9583 198.25H73.7083C77.9173 198.25 81.3333 201.666 81.3333 205.875C81.3333 210.084 77.9173 213.5 73.7083 213.5Z" fill="black"/>
<path d="M99.125 124.542C94.916 124.542 91.5 121.126 91.5 116.917V58.4583C91.5 54.2493 94.916 50.8333 99.125 50.8333H124.542C128.751 50.8333 132.167 54.2493 132.167 58.4583V104.208C132.167 108.417 128.751 111.833 124.542 111.833C120.333 111.833 116.917 108.417 116.917 104.208V66.0833H106.75V116.917C106.75 121.126 103.334 124.542 99.125 124.542Z" fill="black"/>
<path d="M63.5417 152.5H38.125C33.916 152.5 30.5 149.084 30.5 144.875V99.125C30.5 94.916 33.916 91.5 38.125 91.5H63.5417C67.7507 91.5 71.1667 94.916 71.1667 99.125V144.875C71.1667 149.084 67.7507 152.5 63.5417 152.5ZM45.75 137.25H55.9167V106.75H45.75V137.25Z" fill="black"/>
<path d="M83.8749 152.5H27.9583C23.7493 152.5 20.3333 149.084 20.3333 144.875C20.3333 140.666 23.7493 137.25 27.9583 137.25H83.8749C88.0839 137.25 91.4999 140.666 91.4999 144.875C91.4999 149.084 88.0839 152.5 83.8749 152.5Z" fill="black"/>
<path d="M236.375 221.125C232.166 221.125 228.75 217.709 228.75 213.5V152.5C228.75 148.291 232.166 144.875 236.375 144.875C240.584 144.875 244 148.291 244 152.5V213.5C244 217.709 240.584 221.125 236.375 221.125Z" fill="black"/>
<path d="M119.458 221.125C115.249 221.125 111.833 217.709 111.833 213.5V152.5C111.833 148.291 115.249 144.875 119.458 144.875C123.667 144.875 127.083 148.291 127.083 152.5V213.5C127.083 217.709 123.667 221.125 119.458 221.125Z" fill="black"/>
<path d="M177.917 183C145.078 183 111.833 172.528 111.833 152.5C111.833 112.453 244 112.453 244 152.5C244 172.528 210.755 183 177.917 183ZM177.917 137.25C144.377 137.25 127.083 147.945 127.083 152.5C127.083 157.055 144.377 167.75 177.917 167.75C211.456 167.75 228.75 157.055 228.75 152.5C228.75 147.945 211.456 137.25 177.917 137.25Z" fill="black"/>
<path d="M177.917 244C145.078 244 111.833 233.528 111.833 213.5C111.833 209.291 115.249 205.875 119.458 205.875C123.667 205.875 127.083 209.291 127.083 213.5C127.083 218.055 144.377 228.75 177.917 228.75C211.456 228.75 228.75 218.055 228.75 213.5C228.75 209.291 232.166 205.875 236.375 205.875C240.584 205.875 244 209.291 244 213.5C244 233.528 210.755 244 177.917 244Z" fill="black"/>
<path d="M177.917 213.5C145.078 213.5 111.833 203.028 111.833 183C111.833 178.791 115.249 175.375 119.458 175.375C123.667 175.375 127.083 178.791 127.083 183C127.083 187.555 144.377 198.25 177.917 198.25C211.456 198.25 228.75 187.555 228.75 183C228.75 178.791 232.166 175.375 236.375 175.375C240.584 175.375 244 178.791 244 183C244 203.028 210.755 213.5 177.917 213.5Z" fill="black"/>
</g>
<defs>
<clipPath id="clip0">
<rect width="244" height="244" fill="white"/>
</clipPath>
</defs>
</svg>
