<svg width="50" height="55" viewBox="0 0 50 55" fill="none" xmlns="http://www.w3.org/2000/svg">
<path d="M48.0814 0H16.4329C15.4246 0 14.607 0.802977 14.607 1.79351V7.17394H9.12935C8.12103 7.17394 7.30344 7.97692 7.30344 8.96745V14.3479H1.82591C0.817593 14.3479 0 15.1509 0 16.1414V53.2065C0 54.1969 0.817484 55 1.82591 55H33.4744C34.4827 55 35.3003 54.197 35.3003 53.2065V47.8261H40.7779C41.7863 47.8261 42.6039 47.0231 42.6039 46.0325V40.6521H48.0815C49.0898 40.6521 49.9074 39.8491 49.9074 38.8586V1.79351C49.9073 0.802977 49.0898 0 48.0814 0ZM31.6485 51.413H3.65172V17.9348H31.6485V51.413ZM38.952 44.239H35.3003V16.1413C35.3003 15.1509 34.4828 14.3478 33.4744 14.3478H10.9553V10.7609H38.952V44.239ZM46.2556 37.0651H42.6039V8.96735C42.6039 7.97692 41.7864 7.17383 40.7779 7.17383H18.2588V3.58692H46.2556V37.0651Z" fill="#90949F"/>
<path d="M26.1708 22.7173H9.12934C8.12102 22.7173 7.30342 23.5203 7.30342 24.5108C7.30342 25.5012 8.12091 26.3043 9.12934 26.3043H26.1708C27.1792 26.3043 27.9968 25.5013 27.9968 24.5108C27.9968 23.5203 27.1793 22.7173 26.1708 22.7173Z" fill="#90949F"/>
<path d="M26.1708 29.8913H21.6049C20.5966 29.8913 19.779 30.6942 19.779 31.6848C19.779 32.6753 20.5965 33.4783 21.6049 33.4783H26.1708C27.1791 33.4783 27.9967 32.6753 27.9967 31.6848C27.9967 30.6942 27.1793 29.8913 26.1708 29.8913Z" fill="#90949F"/>
<path d="M14.3015 29.8913H9.12943C8.1211 29.8913 7.30351 30.6942 7.30351 31.6848C7.30351 32.6753 8.12099 33.4783 9.12943 33.4783H14.3015C15.3098 33.4783 16.1274 32.6753 16.1274 31.6848C16.1274 30.6942 15.3098 29.8913 14.3015 29.8913Z" fill="#90949F"/>
<path d="M26.1708 37.0651H9.12934C8.12102 37.0651 7.30342 37.868 7.30342 38.8586C7.30342 39.8491 8.12091 40.6521 9.12934 40.6521H26.1708C27.1792 40.6521 27.9968 39.8491 27.9968 38.8586C27.9968 37.868 27.1793 37.0651 26.1708 37.0651Z" fill="#90949F"/>
<path d="M26.1709 44.2391H17.6501C16.6418 44.2391 15.8242 45.0421 15.8242 46.0326C15.8242 47.0231 16.6417 47.8261 17.6501 47.8261H26.1709C27.1792 47.8261 27.9968 47.0231 27.9968 46.0326C27.9968 45.0421 27.1793 44.2391 26.1709 44.2391Z" fill="#90949F"/>
</svg>
