<svg width="87" height="87" viewBox="0 0 87 87" fill="none" xmlns="http://www.w3.org/2000/svg">
<path d="M77.1479 31.1195H75.0588V21.0397C75.0588 20.9763 75.049 20.9135 75.0405 20.8492C75.0372 20.4491 74.9096 20.0559 74.6356 19.7449L57.8619 0.58313C57.8567 0.578211 57.8518 0.576466 57.8484 0.571547C57.7485 0.45984 57.632 0.366539 57.5084 0.286567C57.4721 0.261655 57.4352 0.241186 57.397 0.220082C57.2904 0.162166 57.1769 0.113453 57.0605 0.0783854C57.0287 0.0701343 57.0003 0.0571229 56.9689 0.0485545C56.8421 0.0187236 56.7106 0 56.5775 0H15.3529C13.4706 0 11.9413 1.53105 11.9413 3.41183V31.1185H9.85247C7.1596 31.1185 4.97607 33.3013 4.97607 35.9946V61.3524C4.97607 64.0445 7.1596 66.2295 9.85247 66.2295H11.9413V83.5883C11.9413 85.4693 13.4706 87 15.3529 87H71.647C73.5277 87 75.0586 85.4693 75.0586 83.5883V66.2296H77.1478C79.8398 66.2296 82.0237 64.0456 82.0237 61.3534V35.9956C82.0238 33.3022 79.84 31.1195 77.1479 31.1195ZM15.3529 3.41262H54.8715V20.8678C54.8715 21.8103 55.6359 22.5737 56.5775 22.5737H71.6471V31.1201H15.3529V3.41262ZM58.3205 53.2905C59.565 53.2905 60.9461 53.0206 61.7584 52.694L62.3797 55.9153C61.6232 56.2923 59.9188 56.7006 57.6999 56.7006C51.3929 56.7006 48.1471 52.7765 48.1471 47.5812C48.1471 41.357 52.585 37.8933 58.1058 37.8933C60.2424 37.8933 61.8672 38.3276 62.5979 38.7056L61.7593 41.9806C60.9204 41.6274 59.7576 41.3042 58.2951 41.3042C55.0199 41.3042 52.4776 43.2787 52.4776 47.3381C52.4767 50.9881 54.6416 53.2905 58.3205 53.2905ZM46.2771 47.1217C46.2771 53.1013 42.6507 56.7274 37.3208 56.7274C31.908 56.7274 28.7419 52.6401 28.7419 47.4457C28.7419 41.9798 32.232 37.8925 37.6182 37.8925C43.2215 37.8925 46.2771 42.0882 46.2771 47.1217ZM10.7455 56.3493V38.4344C12.2612 38.1913 14.2362 38.0575 16.3197 38.0575C19.7836 38.0575 22.029 38.6789 23.7862 40.0054C25.6816 41.4118 26.8732 43.6583 26.8732 46.8778C26.8732 50.3677 25.6011 52.7775 23.8417 54.2651C21.92 55.861 18.9977 56.6199 15.4248 56.6199C13.2889 56.6192 11.7734 56.4832 10.7455 56.3493ZM71.6471 82.6645H15.3529V66.2296H71.647V82.6645H71.6471ZM74.7748 56.4291L73.1231 53.128C72.4467 51.8567 72.0137 50.9081 71.4997 49.8536H71.4454C71.0665 50.9097 70.6076 51.8567 70.0394 53.128L68.5238 56.4291H63.8151L69.0917 47.2009L64.0055 38.1903H68.7418L70.3377 41.52C70.8793 42.6274 71.2839 43.5215 71.7173 44.5494H71.7704C72.2034 43.386 72.5566 42.5745 73.0149 41.52L74.5574 38.1903H79.2673L74.1253 47.0925L79.5369 56.4291H74.7748Z" fill="#2187FF"/>
<path d="M22.4889 47.0116C22.5151 43.2242 20.297 41.2209 16.7528 41.2209C15.8314 41.2209 15.2371 41.3025 14.8849 41.3839V53.3163C15.2381 53.397 15.8062 53.397 16.3204 53.397C20.0547 53.4254 22.4889 51.3698 22.4889 47.0116Z" fill="#2187FF"/>
<path d="M33.1002 47.3635C33.1002 50.9361 34.7782 53.4522 37.5382 53.4522C40.3256 53.4522 41.9203 50.8018 41.9203 47.2567C41.9203 43.9815 40.3518 41.1672 37.509 41.1672C34.7224 41.168 33.1002 43.8201 33.1002 47.3635Z" fill="#2187FF"/>
</svg>
