<svg width="57" height="55" viewBox="0 0 57 55" fill="none" xmlns="http://www.w3.org/2000/svg">
<path d="M36.6169 36.2499C33.5883 36.2499 31.1244 38.7733 31.1244 41.8749C31.1244 44.9765 33.5883 47.4999 36.6169 47.4999C39.6455 47.4999 42.1094 44.9765 42.1094 41.8749C42.1094 38.7733 39.6455 36.2499 36.6169 36.2499ZM36.6169 43.75C35.6073 43.75 34.786 42.9088 34.786 41.8749C34.786 40.841 35.6073 39.9999 36.6169 39.9999C37.6264 39.9999 38.4477 40.841 38.4477 41.8749C38.4477 42.9088 37.6264 43.75 36.6169 43.75Z" fill="#90949F"/>
<path d="M19.5291 21.25C16.5005 21.25 14.0365 23.7733 14.0365 26.875C14.0365 29.9766 16.5005 32.5 19.5291 32.5C22.5576 32.5 25.0216 29.9766 25.0216 26.875C25.0215 23.7733 22.5575 21.25 19.5291 21.25ZM19.5291 28.75C18.5195 28.75 17.6982 27.9088 17.6982 26.875C17.6982 25.8411 18.5195 24.9999 19.5291 24.9999C20.5386 24.9999 21.3599 25.8411 21.3599 26.875C21.3598 27.9088 20.5386 28.75 19.5291 28.75Z" fill="#90949F"/>
<path d="M37.7409 21.645C36.9429 21.0091 35.7927 21.1564 35.1718 21.9738L18.0839 44.4739C17.4631 45.2913 17.6068 46.4693 18.4049 47.105C19.2027 47.7407 20.353 47.5938 20.974 46.7761L38.0619 24.2762C38.6827 23.4588 38.539 22.2807 37.7409 21.645Z" fill="#90949F"/>
<path d="M55.6096 27.4242L50.0429 21.7233V9.37498C50.0429 8.33953 49.2232 7.49994 48.2121 7.49994H40.8888C39.8777 7.49994 39.0579 8.33942 39.0579 9.37498V10.4733L29.3674 0.549084C28.6525 -0.183028 27.4932 -0.183028 26.7782 0.549084C26.1117 1.23178 1.51089 26.4258 0.536235 27.4241C-0.178745 28.1562 -0.178745 29.3435 0.536235 30.0757C1.25111 30.8078 2.41043 30.8078 3.12541 30.0757L6.10289 27.0266V53.125C6.10289 54.1604 6.92259 55 7.93376 55H48.2122C49.2232 55 50.043 54.1605 50.043 53.125V27.0265L53.0205 30.0758C53.7355 30.8081 54.8947 30.8081 55.6097 30.0758C56.3246 29.3437 56.3246 28.1564 55.6096 27.4242ZM46.3813 51.2499H9.76453V23.2766L28.073 4.52657C29.0249 5.50149 45.4372 22.3096 46.3814 23.2766L46.3813 51.2499ZM46.3813 17.9733L42.7197 14.2234V11.25H46.3813V17.9733Z" fill="#90949F"/>
</svg>
