<svg width="105" height="100" viewBox="0 0 105 100" fill="none" xmlns="http://www.w3.org/2000/svg">
<path d="M68.1818 65.909C62.5425 65.909 57.9546 70.4969 57.9546 76.1362C57.9546 81.7755 62.5425 86.3635 68.1818 86.3635C73.8212 86.3635 78.4091 81.7755 78.4091 76.1362C78.4091 70.4969 73.8212 65.909 68.1818 65.909ZM68.1818 79.5454C66.3021 79.5454 64.7727 78.016 64.7727 76.1362C64.7727 74.2565 66.3021 72.7271 68.1818 72.7271C70.0616 72.7271 71.591 74.2565 71.591 76.1362C71.591 78.016 70.0616 79.5454 68.1818 79.5454Z" fill="#474A54"/>
<path d="M36.3638 38.6363C30.7245 38.6363 26.1365 43.2243 26.1365 48.8636C26.1365 54.5029 30.7245 59.0908 36.3638 59.0908C42.0031 59.0908 46.591 54.5029 46.591 48.8636C46.5908 43.2243 42.0029 38.6363 36.3638 38.6363ZM36.3638 52.2727C34.484 52.2727 32.9546 50.7434 32.9546 48.8636C32.9546 46.9838 34.484 45.4544 36.3638 45.4544C38.2435 45.4544 39.7729 46.9838 39.7729 48.8636C39.7727 50.7434 38.2435 52.2727 36.3638 52.2727Z" fill="#474A54"/>
<path d="M70.2748 39.3545C68.7889 38.1984 66.6471 38.4661 65.491 39.9524L33.6727 80.8616C32.5168 82.3477 32.7845 84.4897 34.2706 85.6454C35.7561 86.8013 37.898 86.5342 39.0544 85.0475L70.8725 44.1385C72.0286 42.6524 71.7609 40.5104 70.2748 39.3545Z" fill="#474A54"/>
<path d="M103.547 49.8622L93.1816 39.4969V17.0454C93.1816 15.1628 91.6553 13.6363 89.7725 13.6363H76.1363C74.2536 13.6363 72.7271 15.1626 72.7271 17.0454V19.0424L54.6831 0.998335C53.3519 -0.332779 51.1933 -0.332779 49.8619 0.998335C48.6209 2.23961 2.81333 48.0469 0.998488 49.862C-0.332829 51.1931 -0.332829 53.3518 0.998488 54.6831C2.3296 56.0142 4.4883 56.0142 5.81961 54.6831L11.3638 49.1394V96.5908C11.3638 98.4735 12.8901 100 14.7729 100H89.7727C91.6553 100 93.1818 98.4737 93.1818 96.5908V49.1392L98.726 54.6833C100.057 56.0146 102.216 56.0146 103.547 54.6833C104.878 53.3522 104.878 51.1935 103.547 49.8622ZM86.3635 93.1817H18.1819V42.3211L52.2728 8.23013C54.0454 10.0027 84.6057 40.563 86.3637 42.3211L86.3635 93.1817ZM86.3635 32.6788L79.5454 25.8607V20.4546H86.3635V32.6788Z" fill="#474A54"/>
</svg>
