<svg width="244" height="243" viewBox="0 0 244 243" fill="none" xmlns="http://www.w3.org/2000/svg">
<g clip-path="url(#clip0)">
<path d="M17.7917 144.281H226.208V174.656H17.7917V144.281Z" fill="#607D8B"/>
<path d="M17.7917 174.656H226.208V205.031H17.7917V174.656Z" fill="#607D8B"/>
<path d="M17.7917 205.031H226.208V235.406H17.7917V205.031Z" fill="#607D8B"/>
<path d="M104.208 7.59374H139.792L149.958 37.9687H94.0417L104.208 7.59374Z" fill="#FFDA57"/>
<path d="M35.5934 151.875C33.0924 151.875 30.6422 150.65 29.1782 148.402C26.8907 144.879 27.9074 140.181 31.4454 137.902L117.862 82.215C121.4 79.947 126.117 80.9393 128.405 84.4729C130.692 87.9964 129.676 92.6944 126.138 94.9725L39.721 150.66C38.44 151.48 37.0167 151.875 35.5934 151.875Z" fill="black"/>
<path d="M208.407 151.875C206.983 151.875 205.56 151.48 204.279 150.66L117.862 94.9725C114.324 92.6944 113.318 87.9964 115.595 84.4729C117.883 80.9393 122.59 79.9571 126.138 82.215L212.555 137.903C216.093 140.181 217.099 144.879 214.822 148.402C213.358 150.65 210.908 151.875 208.407 151.875Z" fill="black"/>
<path d="M226.208 182.25H17.7917C13.5827 182.25 10.1667 178.848 10.1667 174.656V144.281C10.1667 140.089 13.5827 136.688 17.7917 136.688H226.208C230.417 136.688 233.833 140.089 233.833 144.281V174.656C233.833 178.848 230.417 182.25 226.208 182.25ZM25.4167 167.062H218.583V151.875H25.4167V167.062Z" fill="black"/>
<path d="M236.375 151.875H7.625C3.416 151.875 0 148.473 0 144.281C0 140.089 3.416 136.688 7.625 136.688H236.375C240.584 136.688 244 140.089 244 144.281C244 148.473 240.584 151.875 236.375 151.875Z" fill="black"/>
<path d="M236.375 182.25H7.625C3.416 182.25 0 178.848 0 174.656C0 170.464 3.416 167.062 7.625 167.062H236.375C240.584 167.062 244 170.464 244 174.656C244 178.848 240.584 182.25 236.375 182.25Z" fill="black"/>
<path d="M226.208 212.625H17.7917C13.5827 212.625 10.1667 209.223 10.1667 205.031V174.656C10.1667 170.464 13.5827 167.062 17.7917 167.062H226.208C230.417 167.062 233.833 170.464 233.833 174.656V205.031C233.833 209.223 230.417 212.625 226.208 212.625ZM25.4167 197.438H218.583V182.25H25.4167V197.438Z" fill="black"/>
<path d="M236.375 212.625H7.625C3.416 212.625 0 209.223 0 205.031C0 200.839 3.416 197.438 7.625 197.438H236.375C240.584 197.438 244 200.839 244 205.031C244 209.223 240.584 212.625 236.375 212.625Z" fill="black"/>
<path d="M226.208 243H17.7917C13.5827 243 10.1667 239.598 10.1667 235.406V205.031C10.1667 200.839 13.5827 197.438 17.7917 197.438H226.208C230.417 197.438 233.833 200.839 233.833 205.031V235.406C233.833 239.598 230.417 243 226.208 243ZM25.4167 227.812H218.583V212.625H25.4167V227.812Z" fill="black"/>
<path d="M236.375 243H7.625C3.416 243 0 239.598 0 235.406C0 231.214 3.416 227.812 7.625 227.812H236.375C240.584 227.812 244 231.214 244 235.406C244 239.598 240.584 243 236.375 243Z" fill="black"/>
<path d="M149.958 45.5625H94.0416C91.5914 45.5625 89.2836 44.388 87.8603 42.4035C86.4268 40.4291 86.0303 37.8776 86.8029 35.559L96.9696 5.18399C98.0168 2.09587 100.924 -7.62939e-06 104.208 -7.62939e-06H139.792C143.075 -7.62939e-06 145.983 2.09587 147.03 5.19412L157.197 35.5691C157.97 37.8877 157.573 40.4291 156.14 42.4136C154.716 44.388 152.408 45.5625 149.958 45.5625ZM104.625 30.375H139.375L134.291 15.1875H109.708L104.625 30.375Z" fill="black"/>
<path d="M122 65.8125C117.791 65.8125 114.375 62.4105 114.375 58.2187V37.9687C114.375 33.777 117.791 30.375 122 30.375C126.209 30.375 129.625 33.777 129.625 37.9687V58.2187C129.625 62.4105 126.209 65.8125 122 65.8125Z" fill="black"/>
<path d="M122 96.1875C109.393 96.1875 99.125 85.9714 99.125 73.4062C99.125 69.2145 102.541 65.8125 106.75 65.8125C110.959 65.8125 114.375 69.2145 114.375 73.4062C114.375 77.598 117.801 81 122 81C126.199 81 129.625 77.598 129.625 73.4062C129.625 69.2145 126.199 65.8125 122 65.8125C117.791 65.8125 114.375 62.4105 114.375 58.2187C114.375 54.027 117.791 50.625 122 50.625C134.607 50.625 144.875 60.8411 144.875 73.4062C144.875 85.9714 134.607 96.1875 122 96.1875Z" fill="black"/>
</g>
<defs>
<clipPath id="clip0">
<rect width="244" height="243" fill="white"/>
</clipPath>
</defs>
</svg>
