<svg width="38" height="38" viewBox="0 0 38 38" fill="none" xmlns="http://www.w3.org/2000/svg">
<path d="M11.3762 7.37968L10.1075 9.32748L11.9732 10.5427L14.7586 6.2664L11.9732 1.98999L10.1075 3.20525L11.3762 5.15312H3.38603L4.65473 3.20525L2.78909 1.98999L0.00366211 6.2664L2.78909 10.5427L4.65473 9.32748L3.38603 7.37968H11.3762Z" fill="#818181"/>
<path d="M34.6565 12.4688C34.0009 12.4688 33.3887 12.6587 32.8722 12.9864C32.2622 12.1767 31.2929 11.6523 30.2034 11.6523C29.8132 11.6523 29.4384 11.7196 29.0901 11.8431V3.33984C29.0901 1.49825 27.5919 0 25.7503 0C24.2126 0 22.9143 1.04463 22.5276 2.46139C22.1466 2.30991 21.7315 2.22656 21.2972 2.22656C19.4556 2.22656 17.9573 3.72482 17.9573 5.56641V17.629C17.0089 17.019 15.899 16.7063 14.7387 16.7331C13.1707 16.7701 11.7267 17.4241 10.6753 18.5716L9.94556 19.3586L19.7386 29.721V38H36.0667V34.031L37.9964 27.8003V15.8086C37.9964 13.967 36.4981 12.4688 34.6565 12.4688ZM35.7698 27.4634L33.8401 33.6941V35.7734H21.9651V28.7973L13.1497 19.4102C13.6425 19.129 14.2023 18.973 14.7912 18.9591C15.753 18.9361 16.6537 19.2944 17.3297 19.966L20.1839 22.8092V5.56641C20.1839 4.95254 20.6833 4.45312 21.2972 4.45312C21.911 4.45312 22.4104 4.95254 22.4104 5.56641V16.0312H24.637V3.33984C24.637 2.72598 25.1364 2.22656 25.7503 2.22656C26.3642 2.22656 26.8636 2.72598 26.8636 3.33984V16.0312H29.0901V14.9922C29.0901 14.3783 29.5896 13.8789 30.2034 13.8789C30.8173 13.8789 31.3167 14.3783 31.3167 14.9922V16.0312H33.5433V15.8086C33.5433 15.1947 34.0427 14.6953 34.6565 14.6953C35.2704 14.6953 35.7698 15.1947 35.7698 15.8086V27.4634Z" fill="#818181"/>
</svg>
