<svg width="48" height="48" viewBox="0 0 48 48" fill="none" xmlns="http://www.w3.org/2000/svg">
<g filter="url(#filter0_d)">
<circle cx="24" cy="22" r="22" fill="#FFDA57"/>
</g>
<g clip-path="url(#clip0)">
<path d="M33.8863 17.1642C33.7533 17.0072 33.5579 16.9167 33.3521 16.9167H31.2519V13.4164C31.2519 13.0297 30.9385 12.7163 30.5519 12.7163H29.4417L29.6467 12.5113C29.9201 12.2379 29.9201 11.7946 29.6467 11.5212C29.3734 11.2479 28.9301 11.2479 28.6567 11.5212L27.7516 12.4263L26.8465 11.5212C26.5731 11.2478 26.1298 11.2478 25.8564 11.5212C25.583 11.7946 25.583 12.2378 25.8564 12.5112L26.0615 12.7163H24.9513C24.5647 12.7163 24.2513 13.0297 24.2513 13.4164V14.1164H17.9507C17.5641 14.1164 17.2506 14.4299 17.2506 14.8165V16.9167H15.8124L14.4257 11.832C14.3426 11.5274 14.066 11.3162 13.7503 11.3162H10.8567C10.4701 11.3162 10.1566 11.6296 10.1566 12.0162C10.1566 12.4029 10.4701 12.7163 10.8567 12.7163H13.2156L17.0846 26.9026C16.3498 27.2327 15.8505 27.9681 15.8505 28.8178C15.8505 29.785 16.5078 30.601 17.3991 30.844C17.3036 31.0837 17.2506 31.3447 17.2506 31.6181C17.2506 32.7761 18.1928 33.7183 19.3508 33.7183C20.5089 33.7183 21.451 32.7761 21.451 31.6181C21.451 31.3727 21.4083 31.1371 21.3306 30.918H27.1719C27.0942 31.1371 27.0515 31.3727 27.0515 31.6181C27.0515 32.7761 27.9937 33.7183 29.1517 33.7183C30.3098 33.7183 31.2519 32.7761 31.2519 31.6181C31.2519 30.46 30.3098 29.5179 29.1517 29.5179H17.9507C17.5647 29.5179 17.2506 29.2038 17.2506 28.8178C17.2506 28.4564 17.5211 28.1569 17.8797 28.1212L32.0126 26.715C32.3213 26.689 32.5896 26.4515 32.6426 26.1326L34.0427 17.7318C34.0765 17.5289 34.0193 17.3213 33.8863 17.1642ZM25.6514 14.1164H29.8518V16.9167H25.6514V14.1164ZM18.6507 15.5166H24.2513V16.9167H18.6507V15.5166ZM32.5257 18.3168L31.3495 25.3739L18.4684 26.6556L16.1943 18.3168H32.5257ZM20.0509 31.6181C20.0509 32.0041 19.7368 32.3181 19.3508 32.3181C18.9648 32.3181 18.6507 32.0041 18.6507 31.6181C18.6507 31.232 18.9648 30.918 19.3508 30.918C19.7368 30.918 20.0509 31.232 20.0509 31.6181ZM29.1517 32.3181C28.7657 32.3181 28.4517 32.0041 28.4517 31.6181C28.4517 31.232 28.7657 30.918 29.1517 30.918C29.5377 30.918 29.8518 31.232 29.8518 31.6181C29.8518 32.0041 29.5377 32.3181 29.1517 32.3181Z" fill="#474A54"/>
<path d="M24.9512 23.9174C25.3378 23.9174 25.6512 23.604 25.6512 23.2174V20.4171C25.6512 20.0305 25.3378 19.717 24.9512 19.717C24.5645 19.717 24.2511 20.0305 24.2511 20.4171V23.2174C24.2511 23.604 24.5645 23.9174 24.9512 23.9174Z" fill="#474A54"/>
<path d="M29.1518 23.9174C29.5385 23.9174 29.8519 23.604 29.8519 23.2174V20.4171C29.8519 20.0305 29.5385 19.717 29.1518 19.717C28.7652 19.717 28.4518 20.0305 28.4518 20.4171V23.2174C28.4518 23.604 28.7652 23.9174 29.1518 23.9174Z" fill="#474A54"/>
<path d="M20.7508 23.9174C21.1375 23.9174 21.4509 23.604 21.4509 23.2174V20.4171C21.4509 20.0305 21.1375 19.717 20.7508 19.717C20.3642 19.717 20.0508 20.0305 20.0508 20.4171V23.2174C20.0508 23.604 20.3642 23.9174 20.7508 23.9174Z" fill="#474A54"/>
</g>
<defs>
<filter id="filter0_d" x="0.640927" y="0" width="46.7181" height="46.7181" filterUnits="userSpaceOnUse" color-interpolation-filters="sRGB">
<feFlood flood-opacity="0" result="BackgroundImageFix"/>
<feColorMatrix in="SourceAlpha" type="matrix" values="0 0 0 0 0 0 0 0 0 0 0 0 0 0 0 0 0 0 127 0"/>
<feOffset dy="1.35907"/>
<feGaussianBlur stdDeviation="0.679537"/>
<feColorMatrix type="matrix" values="0 0 0 0 0 0 0 0 0 0 0 0 0 0 0 0 0 0 0.15 0"/>
<feBlend mode="normal" in2="BackgroundImageFix" result="effect1_dropShadow"/>
<feBlend mode="normal" in="SourceGraphic" in2="effect1_dropShadow" result="shape"/>
</filter>
<clipPath id="clip0">
<rect width="23.8956" height="23.8956" fill="white" transform="translate(10.1566 10.5693)"/>
</clipPath>
</defs>
</svg>
