<svg width="27" height="27" viewBox="0 0 27 27" fill="none" xmlns="http://www.w3.org/2000/svg">
<path d="M19.9493 1.22632H7.97267C4.66543 1.22632 1.98438 3.98861 1.98438 7.39608V19.7356C1.98438 23.1431 4.66543 25.9053 7.97267 25.9053H19.9493C23.2565 25.9053 25.9375 23.1431 25.9375 19.7356V7.39608C25.9375 3.98861 23.2565 1.22632 19.9493 1.22632Z" stroke="#FFDA57" stroke-width="2" stroke-linecap="round" stroke-linejoin="round"/>
<path d="M18.7513 12.788C18.8991 13.8149 18.7288 14.8638 18.2647 15.7853C17.8006 16.7068 17.0663 17.4541 16.1663 17.9208C15.2662 18.3876 14.2462 18.55 13.2514 18.3851C12.2565 18.2202 11.3375 17.7362 10.625 17.0021C9.91244 16.268 9.44273 15.3211 9.28265 14.2961C9.12257 13.2711 9.28025 12.2202 9.73328 11.2929C10.1863 10.3656 10.9116 9.609 11.806 9.13085C12.7004 8.65269 13.7184 8.47728 14.7151 8.62957C15.7319 8.7849 16.6731 9.27303 17.3999 10.0218C18.1267 10.7707 18.6005 11.7405 18.7513 12.788Z" stroke="#FFDA57" stroke-width="2" stroke-linecap="round" stroke-linejoin="round"/>
<path d="M20.5481 6.77905H20.5601" stroke="#FFDA57" stroke-width="2" stroke-linecap="round" stroke-linejoin="round"/>
</svg>
