<svg width="217" height="217" viewBox="0 0 217 217" fill="none" xmlns="http://www.w3.org/2000/svg">
<rect width="217" height="217" fill="#D8BCFF"/>
<path d="M72.6616 175H74.9616V189H72.6616V182.9H66.2616V189H63.9616V175H66.2616V180.72H72.6616V175ZM88.4162 183.62C88.4162 183.82 88.4028 184.067 88.3762 184.36H79.6162C79.7495 185.227 80.1095 185.913 80.6962 186.42C81.2962 186.927 82.0362 187.18 82.9162 187.18C83.3428 187.18 83.7428 187.12 84.1162 187C84.4895 186.867 84.8162 186.687 85.0962 186.46C85.3895 186.22 85.6295 185.933 85.8162 185.6H88.1562C87.7295 186.747 87.0495 187.647 86.1162 188.3C85.1828 188.94 84.1162 189.26 82.9162 189.26C81.3295 189.26 80.0028 188.72 78.9362 187.64C77.8828 186.56 77.3562 185.213 77.3562 183.6C77.3562 181.987 77.8828 180.64 78.9362 179.56C80.0028 178.48 81.3295 177.94 82.9162 177.94C83.9962 177.94 84.9562 178.2 85.7962 178.72C86.6362 179.227 87.2828 179.913 87.7362 180.78C88.1895 181.633 88.4162 182.58 88.4162 183.62ZM82.9162 179.94C82.0895 179.94 81.3828 180.173 80.7962 180.64C80.2228 181.107 79.8428 181.747 79.6562 182.56H86.1962C86.0628 182.013 85.8428 181.547 85.5362 181.16C85.2295 180.76 84.8495 180.46 84.3962 180.26C83.9562 180.047 83.4628 179.94 82.9162 179.94ZM99.0204 178.2V180.2H95.2204V189H93.0604V180.2H89.2404V178.2H99.0204ZM117.92 183.64C117.92 185.227 117.394 186.54 116.34 187.58C115.3 188.62 113.974 189.18 112.36 189.26V192.4H110.24V189.26C108.627 189.18 107.294 188.62 106.24 187.58C105.2 186.54 104.68 185.227 104.68 183.64C104.68 182.053 105.207 180.727 106.26 179.66C107.314 178.593 108.64 178.02 110.24 177.94V174.92H112.36V177.94C113.96 178.02 115.287 178.593 116.34 179.66C117.394 180.713 117.92 182.04 117.92 183.64ZM106.86 183.62C106.86 184.607 107.174 185.433 107.8 186.1C108.44 186.767 109.26 187.133 110.26 187.2V180C109.26 180.067 108.44 180.44 107.8 181.12C107.174 181.8 106.86 182.633 106.86 183.62ZM112.34 187.2C113.34 187.133 114.154 186.767 114.78 186.1C115.42 185.433 115.74 184.607 115.74 183.62C115.74 182.633 115.42 181.8 114.78 181.12C114.14 180.44 113.327 180.067 112.34 180V187.2ZM129.385 187.66C128.292 188.727 126.918 189.26 125.265 189.26C123.612 189.26 122.232 188.727 121.125 187.66C120.032 186.58 119.485 185.227 119.485 183.6C119.485 182.533 119.732 181.567 120.225 180.7C120.732 179.833 121.425 179.16 122.305 178.68C123.198 178.187 124.185 177.94 125.265 177.94C126.345 177.94 127.325 178.187 128.205 178.68C129.098 179.16 129.792 179.833 130.285 180.7C130.792 181.567 131.045 182.533 131.045 183.6C131.045 185.227 130.492 186.58 129.385 187.66ZM125.265 187.14C125.945 187.14 126.552 186.993 127.085 186.7C127.618 186.393 128.032 185.973 128.325 185.44C128.632 184.893 128.785 184.28 128.785 183.6C128.785 182.573 128.452 181.727 127.785 181.06C127.132 180.393 126.292 180.06 125.265 180.06C124.238 180.06 123.392 180.393 122.725 181.06C122.072 181.727 121.745 182.573 121.745 183.6C121.745 184.627 122.072 185.473 122.725 186.14C123.392 186.807 124.238 187.14 125.265 187.14ZM141.638 178.2V180.2H137.838V189H135.678V180.2H131.858V178.2H141.638ZM152.373 187.66C151.28 188.727 149.907 189.26 148.253 189.26C146.6 189.26 145.22 188.727 144.113 187.66C143.02 186.58 142.473 185.227 142.473 183.6C142.473 182.533 142.72 181.567 143.213 180.7C143.72 179.833 144.413 179.16 145.293 178.68C146.187 178.187 147.173 177.94 148.253 177.94C149.333 177.94 150.313 178.187 151.193 178.68C152.087 179.16 152.78 179.833 153.273 180.7C153.78 181.567 154.033 182.533 154.033 183.6C154.033 185.227 153.48 186.58 152.373 187.66ZM148.253 187.14C148.933 187.14 149.54 186.993 150.073 186.7C150.607 186.393 151.02 185.973 151.313 185.44C151.62 184.893 151.773 184.28 151.773 183.6C151.773 182.573 151.44 181.727 150.773 181.06C150.12 180.393 149.28 180.06 148.253 180.06C147.227 180.06 146.38 180.393 145.713 181.06C145.06 181.727 144.733 182.573 144.733 183.6C144.733 184.627 145.06 185.473 145.713 186.14C146.38 186.807 147.227 187.14 148.253 187.14Z" fill="white"/>
<path d="M131.492 75.6246C135.255 75.6246 138.305 72.5737 138.305 68.8103C138.305 65.0469 135.255 61.9961 131.492 61.9961C127.73 61.9961 124.68 65.0469 124.68 68.8103C124.68 72.5737 127.73 75.6246 131.492 75.6246Z" fill="white"/>
<path fill-rule="evenodd" clip-rule="evenodd" d="M161.824 74.3212C159.55 68.5304 155.381 60.1751 148.43 53.2552C141.504 46.3592 133.239 42.3081 127.526 40.1237C121.253 37.7257 114.125 39.2372 109.367 43.9742L92.6471 60.6201C87.6909 65.5543 86.2624 73.1466 89.0923 79.5126C89.9698 81.487 90.9242 83.4182 91.944 85.284L55.2471 121.99C54.4486 122.789 54 123.872 54 125.002V143.741C54 146.093 55.9062 148 58.2578 148H76.9921C79.3437 148 81.2499 146.093 81.2499 143.741V136.075L88.9139 136.075C91.2655 136.075 93.1717 134.168 93.1717 131.816V124.15H100.836C102.424 124.15 103.81 123.28 104.541 121.99L115.375 109.609C117.64 110.897 120.004 112.055 122.427 113.063C128.844 115.733 136.163 114.298 141.075 109.409L157.996 92.5619C162.796 87.7836 164.298 80.6237 161.824 74.3212ZM88.9139 115.632H100.836L112.177 102.689C113.407 100.685 116.029 100.057 118.033 101.287C120.456 102.775 123.034 104.091 125.697 105.198C128.925 106.542 132.603 105.824 135.068 103.371L151.989 86.5245C154.382 84.1429 155.131 80.575 153.898 77.4345C151.922 72.4026 148.328 65.1703 142.423 59.2922C136.555 53.4494 129.43 49.9703 124.486 48.0802C121.338 46.8771 117.762 47.6349 115.375 50.0112L98.6549 66.6569C96.1847 69.1162 95.469 72.8915 96.8739 76.0518C98.0714 78.7462 99.4268 81.3458 100.902 83.7785C101.92 85.4561 101.66 87.6118 100.273 88.9993L62.5156 126.766V139.482H72.7343V131.816C72.7343 129.464 74.6405 127.557 76.9921 127.557L84.6561 127.557V119.891C84.6561 117.539 86.5623 115.632 88.9139 115.632Z" fill="white"/>
</svg>
