<svg width="56" height="55" viewBox="0 0 56 55" fill="none" xmlns="http://www.w3.org/2000/svg">
<path d="M39.1117 18.4803C41.0107 18.4803 42.5501 16.9409 42.5501 15.0419C42.5501 13.1429 41.0107 11.6035 39.1117 11.6035C37.2127 11.6035 35.6733 13.1429 35.6733 15.0419C35.6733 16.9409 37.2127 18.4803 39.1117 18.4803Z" fill="#90949F"/>
<path fill-rule="evenodd" clip-rule="evenodd" d="M54.4207 17.8226C53.2732 14.9007 51.1689 10.6847 47.6606 7.19299C44.1647 3.71335 39.9934 1.66923 37.1097 0.567014C33.9438 -0.642973 30.3463 0.119702 27.9448 2.50991L19.5059 10.9092C17.0044 13.3989 16.2834 17.2299 17.7117 20.4421C18.1546 21.4384 18.6363 22.4129 19.151 23.3543L0.629438 41.8758C0.226396 42.2789 0 42.8255 0 43.3955V52.851C0 54.0379 0.962101 55 2.14899 55H11.6045C12.7914 55 13.7535 54.0379 13.7535 52.851V48.9828L17.6217 48.9827C18.8086 48.9827 19.7707 48.0206 19.7707 46.8337V42.9657H23.6389C24.4406 42.9657 25.1398 42.5266 25.5092 41.8758L30.9769 35.6282C32.12 36.2781 33.3133 36.8626 34.5362 37.3712C37.7749 38.7185 41.4693 37.9944 43.9482 35.5273L52.4889 27.0266C54.9113 24.6156 55.6696 21.0028 54.4207 17.8226ZM17.6217 38.6677H23.6389L29.363 32.1368C29.9838 31.1253 31.3072 30.8085 32.3186 31.4294C33.5414 32.1799 34.8429 32.8439 36.1868 33.4029C37.8163 34.0806 39.6725 33.7187 40.9163 32.481L49.457 23.9802C50.6644 22.7785 51.0425 20.9782 50.4203 19.3935C49.4232 16.8545 47.6089 13.2052 44.6288 10.2392C41.6668 7.29098 38.0707 5.53547 35.5755 4.58175C33.9867 3.97466 32.1817 4.35707 30.9769 5.5561L22.5381 13.9553C21.2914 15.1962 20.9302 17.1012 21.6392 18.6959C22.2436 20.0554 22.9278 21.3672 23.6725 22.5947C24.186 23.4412 24.0548 24.5289 23.3547 25.229L4.29797 44.2856V50.702H9.45554V46.8339C9.45554 45.647 10.4176 44.6849 11.6045 44.6849L15.4727 44.6848V40.8167C15.4727 39.6298 16.4348 38.6677 17.6217 38.6677Z" fill="#90949F"/>
</svg>
