<svg width="422" height="326" viewBox="0 0 422 326" fill="none" xmlns="http://www.w3.org/2000/svg">
<rect x="278.385" y="39.2607" width="133.869" height="133.869" transform="rotate(90 278.385 39.2607)" fill="white"/>
<rect x="259.643" y="60.6797" width="91.031" height="93.7084" transform="rotate(90 259.643 60.6797)" fill="#A7DAFF"/>
<rect x="323.9" y="122.26" width="80.3214" height="80.3214" transform="rotate(90 323.9 122.26)" fill="#8E3FFE"/>
<rect x="176.644" y="141.001" width="56.225" height="56.225" transform="rotate(90 176.644 141.001)" fill="#FF8D8D"/>
<rect x="155.225" y="58.0028" width="56.225" height="56.225" transform="rotate(90 155.225 58.0028)" fill="#313131"/>
<rect x="307.836" y="12.4872" width="29.4512" height="29.4512" transform="rotate(90 307.836 12.4872)" fill="#2B2D33"/>
<rect x="163.257" y="33.9063" width="34.806" height="34.806" transform="rotate(90 163.257 33.9063)" fill="#8E3FFE"/>
<rect x="294.449" y="25.8741" width="48.1929" height="48.1929" transform="rotate(90 294.449 25.8741)" fill="#FFDA57"/>
<rect x="302.481" y="186.517" width="37.4833" height="37.4833" transform="rotate(90 302.481 186.517)" fill="#FFDA57"/>
<rect x="246.256" y="9.80951" width="16.0643" height="16.0643" transform="rotate(90 246.256 9.80951)" fill="#40C3AB"/>
<rect x="131.129" y="181.162" width="24.0964" height="24.0964" transform="rotate(90 131.129 181.162)" fill="#40C3AB"/>
<path d="M37.0508 270.218C43.6747 270.218 49.1874 272.462 53.589 276.949C58.0333 281.393 60.2555 286.949 60.2555 293.615C60.2555 300.282 58.0547 305.859 53.6531 310.346C49.2515 314.791 43.7174 317.013 37.0508 317.013C31.4527 317.013 26.6237 315.325 22.564 311.949C18.5469 308.573 16.0256 304.085 15 298.487H24.7434C25.6408 301.35 27.1792 303.615 29.3587 305.282C31.5809 306.949 34.1449 307.782 37.0508 307.782C40.1704 307.782 42.8841 306.885 45.1917 305.09C47.5421 303.295 49.1233 300.902 49.9352 297.91H32.7561V289.256H49.9352C49.1233 286.308 47.5421 283.936 45.1917 282.141C42.8841 280.346 40.1704 279.449 37.0508 279.449C34.2304 279.449 31.7518 280.218 29.6151 281.756C27.4784 283.295 25.8972 285.41 24.8716 288.103H15.1923C16.4316 282.59 19.017 278.231 22.9486 275.026C26.8801 271.821 31.5809 270.218 37.0508 270.218Z" fill="#2B2D33"/>
<path d="M103.199 307.013H107.558V324H98.5836V316.051H72.0457V324H63.0715V307.013H66.6611C67.3022 306.5 67.8363 305.944 68.2637 305.346C68.7338 304.748 69.1611 303.808 69.5457 302.526C69.973 301.201 70.3149 299.855 70.5713 298.487C70.8277 297.077 71.1055 294.919 71.4046 292.013C71.7465 289.107 72.0457 286.222 72.3021 283.359C72.5585 280.453 72.9003 276.393 73.3277 271.179H103.199V307.013ZM81.7249 280.218C81.2121 288.509 80.5925 294.598 79.866 298.487C79.1395 302.333 78.0712 305.175 76.6609 307.013H93.5196V280.218H81.7249Z" fill="#2B2D33"/>
<path d="M125.165 307.013H143.049V316.051H115.421V271.179H142.344V280.154H125.165V289H140.677V297.782H125.165V307.013Z" fill="#2B2D33"/>
<path d="M159.625 271.179H189.432V316.051H179.753V280.218H168.086L165.971 299.641C165.373 305.197 163.77 309.342 161.163 312.077C158.599 314.812 154.967 316.179 150.266 316.179H147.766V306.692H150.33C153.792 306.692 155.779 304.491 156.292 300.09L159.625 271.179Z" fill="#2B2D33"/>
<path d="M217.115 284.769C220.235 284.769 223.012 285.432 225.448 286.756C227.927 288.081 229.85 289.94 231.217 292.333C232.627 294.684 233.333 297.376 233.333 300.41C233.333 304.983 231.815 308.744 228.781 311.692C225.747 314.598 221.858 316.051 217.115 316.051H199.679V271.179H209.423V284.769H217.115ZM216.41 306.949C218.461 306.949 220.128 306.35 221.41 305.154C222.734 303.915 223.397 302.333 223.397 300.41C223.397 299.128 223.098 297.996 222.499 297.013C221.944 296.03 221.132 295.261 220.064 294.705C218.995 294.15 217.777 293.872 216.41 293.872H209.423V306.949H216.41Z" fill="#2B2D33"/>
<path d="M267.105 292.397C269.071 293.423 270.588 294.876 271.656 296.756C272.767 298.594 273.323 300.709 273.323 303.103C273.323 306.692 271.934 309.748 269.156 312.269C266.421 314.791 263.109 316.051 259.22 316.051H240.118V271.179H258.708C262.554 271.179 265.759 272.291 268.323 274.513C270.887 276.692 272.169 279.427 272.169 282.718C272.169 284.641 271.72 286.457 270.823 288.167C269.925 289.876 268.686 291.286 267.105 292.397ZM262.746 284.256C262.746 283.53 262.618 282.889 262.361 282.333C262.148 281.735 261.827 281.222 261.4 280.795C260.973 280.368 260.438 280.047 259.797 279.833C259.199 279.577 258.515 279.449 257.746 279.449H249.669V289H257.746C259.285 289 260.502 288.573 261.4 287.718C262.297 286.821 262.746 285.667 262.746 284.256ZM258.259 307.141C259.84 307.141 261.122 306.671 262.105 305.731C263.088 304.791 263.579 303.573 263.579 302.077C263.579 300.624 263.088 299.427 262.105 298.487C261.122 297.547 259.84 297.077 258.259 297.077H249.669V307.141H258.259Z" fill="#2B2D33"/>
<path d="M290.989 307.013H308.873V316.051H281.246V271.179H308.168V280.154H290.989V289H306.502V297.782H290.989V307.013Z" fill="#2B2D33"/>
<path d="M325.706 266.244V259H345.001V266.244H325.706ZM347.244 271.179H354.295V316.051H344.552V289.064L323.783 316.051H317.052V271.179H326.796V297.846L347.244 271.179Z" fill="#2B2D33"/>
<path d="M385.141 317.013C380.825 317.013 376.894 316.009 373.347 314C369.8 311.949 367.022 309.15 365.014 305.603C363.005 302.013 362.001 298.038 362.001 293.679C362.001 287.013 364.202 281.436 368.603 276.949C373.048 272.462 378.56 270.218 385.141 270.218C390.611 270.218 395.334 271.863 399.308 275.154C403.282 278.444 405.803 282.761 406.872 288.103H397.128C396.53 286.35 395.654 284.833 394.5 283.551C393.346 282.226 391.958 281.222 390.334 280.538C388.753 279.812 387.022 279.449 385.141 279.449C381.338 279.449 378.154 280.816 375.59 283.551C373.069 286.244 371.808 289.62 371.808 293.679C371.808 297.697 373.069 301.051 375.59 303.744C378.154 306.436 381.338 307.782 385.141 307.782C388.09 307.782 390.633 306.949 392.77 305.282C394.906 303.615 396.381 301.35 397.193 298.487H407C405.974 304.043 403.453 308.53 399.436 311.949C395.462 315.325 390.697 317.013 385.141 317.013Z" fill="#2B2D33"/>
</svg>
