<svg width="555" height="85" viewBox="0 0 555 85" fill="none" xmlns="http://www.w3.org/2000/svg">
<path d="M132.635 14.52C140.075 14.52 146.267 17.04 151.211 22.08C156.203 27.072 158.699 33.312 158.699 40.8C158.699 48.288 156.227 54.552 151.283 59.592C146.339 64.584 140.123 67.08 132.635 67.08C126.347 67.08 120.923 65.184 116.363 61.392C111.851 57.6 109.019 52.56 107.867 46.272H118.811C119.819 49.488 121.547 52.032 123.995 53.904C126.491 55.776 129.371 56.712 132.635 56.712C136.139 56.712 139.187 55.704 141.779 53.688C144.419 51.672 146.195 48.984 147.107 45.624H127.811V35.904H147.107C146.195 32.592 144.419 29.928 141.779 27.912C139.187 25.896 136.139 24.888 132.635 24.888C129.467 24.888 126.683 25.752 124.283 27.48C121.883 29.208 120.107 31.584 118.955 34.608H108.083C109.475 28.416 112.379 23.52 116.795 19.92C121.211 16.32 126.491 14.52 132.635 14.52Z" fill="#2B2D33"/>
<path d="M206.934 55.848H211.83V74.928H201.75V66H171.942V74.928H161.862V55.848H165.894C166.614 55.272 167.214 54.648 167.694 53.976C168.222 53.304 168.702 52.248 169.134 50.808C169.614 49.32 169.998 47.808 170.286 46.272C170.574 44.688 170.886 42.264 171.222 39C171.606 35.736 171.942 32.496 172.23 29.28C172.518 26.016 172.902 21.456 173.382 15.6H206.934V55.848ZM182.814 25.752C182.238 35.064 181.542 41.904 180.726 46.272C179.91 50.592 178.71 53.784 177.126 55.848H196.062V25.752H182.814Z" fill="#2B2D33"/>
<path d="M231.606 55.848H251.694V66H220.662V15.6H250.902V25.68H231.606V35.616H249.03V45.48H231.606V55.848Z" fill="#2B2D33"/>
<path d="M270.313 15.6H303.793V66H292.921V25.752H279.817L277.441 47.568C276.769 53.808 274.969 58.464 272.041 61.536C269.161 64.608 265.081 66.144 259.801 66.144H256.993V55.488H259.873C263.761 55.488 265.993 53.016 266.569 48.072L270.313 15.6Z" fill="#2B2D33"/>
<path d="M334.887 30.864C338.391 30.864 341.511 31.608 344.247 33.096C347.031 34.584 349.191 36.672 350.727 39.36C352.311 42 353.103 45.024 353.103 48.432C353.103 53.568 351.399 57.792 347.991 61.104C344.583 64.368 340.215 66 334.887 66H315.303V15.6H326.247V30.864H334.887ZM334.095 55.776C336.399 55.776 338.271 55.104 339.711 53.76C341.199 52.368 341.943 50.592 341.943 48.432C341.943 46.992 341.607 45.72 340.935 44.616C340.311 43.512 339.399 42.648 338.199 42.024C336.999 41.4 335.631 41.088 334.095 41.088H326.247V55.776H334.095Z" fill="#2B2D33"/>
<path d="M391.037 39.432C393.245 40.584 394.949 42.216 396.149 44.328C397.397 46.392 398.021 48.768 398.021 51.456C398.021 55.488 396.461 58.92 393.341 61.752C390.269 64.584 386.549 66 382.181 66H360.725V15.6H381.605C385.925 15.6 389.525 16.848 392.405 19.344C395.285 21.792 396.725 24.864 396.725 28.56C396.725 30.72 396.221 32.76 395.213 34.68C394.205 36.6 392.813 38.184 391.037 39.432ZM386.141 30.288C386.141 29.472 385.997 28.752 385.709 28.128C385.469 27.456 385.109 26.88 384.629 26.4C384.149 25.92 383.549 25.56 382.829 25.32C382.157 25.032 381.389 24.888 380.525 24.888H371.453V35.616H380.525C382.253 35.616 383.621 35.136 384.629 34.176C385.637 33.168 386.141 31.872 386.141 30.288ZM381.101 55.992C382.877 55.992 384.317 55.464 385.421 54.408C386.525 53.352 387.077 51.984 387.077 50.304C387.077 48.672 386.525 47.328 385.421 46.272C384.317 45.216 382.877 44.688 381.101 44.688H371.453V55.992H381.101Z" fill="#2B2D33"/>
<path d="M417.864 55.848H437.952V66H406.92V15.6H437.16V25.68H417.864V35.616H435.288V45.48H417.864V55.848Z" fill="#2B2D33"/>
<path d="M456.859 10.056V1.91998H478.531V10.056H456.859ZM481.051 15.6H488.971V66H478.027V35.688L454.699 66H447.139V15.6H458.083V45.552L481.051 15.6Z" fill="#2B2D33"/>
<path d="M523.618 67.08C518.77 67.08 514.354 65.952 510.37 63.696C506.386 61.392 503.266 58.248 501.01 54.264C498.754 50.232 497.626 45.768 497.626 40.872C497.626 33.384 500.098 27.12 505.042 22.08C510.034 17.04 516.226 14.52 523.618 14.52C529.762 14.52 535.066 16.368 539.53 20.064C543.994 23.76 546.826 28.608 548.026 34.608H537.082C536.41 32.64 535.426 30.936 534.13 29.496C532.834 28.008 531.274 26.88 529.45 26.112C527.674 25.296 525.73 24.888 523.618 24.888C519.346 24.888 515.77 26.424 512.89 29.496C510.058 32.52 508.642 36.312 508.642 40.872C508.642 45.384 510.058 49.152 512.89 52.176C515.77 55.2 519.346 56.712 523.618 56.712C526.93 56.712 529.786 55.776 532.186 53.904C534.586 52.032 536.242 49.488 537.154 46.272H548.17C547.018 52.512 544.186 57.552 539.674 61.392C535.21 65.184 529.858 67.08 523.618 67.08Z" fill="#2B2D33"/>
<rect x="67" y="16" width="50" height="50" transform="rotate(90 67 16)" fill="#EFEFEF"/>
<rect x="60" y="24" width="34" height="35" transform="rotate(90 60 24)" fill="#A7DAFF"/>
<rect x="84" y="47.0001" width="30" height="30" transform="rotate(90 84 47.0001)" fill="#8E3FFE"/>
<rect x="29" y="54.0001" width="21" height="21" transform="rotate(90 29 54.0001)" fill="#FF8D8D"/>
<rect x="21" y="23.0002" width="21" height="21" transform="rotate(90 21 23.0002)" fill="#313131"/>
<rect x="78" y="6.00012" width="11" height="11" transform="rotate(90 78 6.00012)" fill="#2B2D33"/>
<rect x="24" y="14.0001" width="13" height="13" transform="rotate(90 24 14.0001)" fill="#8E3FFE"/>
<rect x="73" y="11.0001" width="18" height="18" transform="rotate(90 73 11.0001)" fill="#FFDA57"/>
<rect x="76" y="71" width="14" height="14" transform="rotate(90 76 71)" fill="#FFDA57"/>
<rect x="55" y="5" width="6" height="6" transform="rotate(90 55 5)" fill="#40C3AB"/>
<rect x="12" y="69" width="9" height="9" transform="rotate(90 12 69)" fill="#40C3AB"/>
</svg>
