<svg width="135" height="21" viewBox="0 0 135 21" fill="none" xmlns="http://www.w3.org/2000/svg">
<path d="M32.2626 3.58706C34.0723 3.58706 35.5785 4.20965 36.7811 5.45483C37.9953 6.68814 38.6025 8.22979 38.6025 10.0798C38.6025 11.9297 38.0012 13.4773 36.7986 14.7225C35.596 15.9558 34.084 16.5725 32.2626 16.5725C30.7331 16.5725 29.4137 16.104 28.3045 15.1672C27.207 14.2304 26.5181 12.9852 26.2379 11.4317H28.9C29.1452 12.2262 29.5655 12.8547 30.1609 13.3172C30.7681 13.7797 31.4686 14.011 32.2626 14.011C33.1149 14.011 33.8563 13.7619 34.4868 13.2639C35.1289 12.7658 35.5609 12.1017 35.7828 11.2716H31.0892V8.87017H35.7828C35.5609 8.05191 35.1289 7.39374 34.4868 6.89567C33.8563 6.3976 33.1149 6.14857 32.2626 6.14857C31.492 6.14857 30.8148 6.36203 30.231 6.78894C29.6472 7.21586 29.2152 7.80287 28.935 8.54998H26.2905C26.6291 7.02019 27.3354 5.81059 28.4096 4.92118C29.4838 4.03177 30.7681 3.58706 32.2626 3.58706Z" fill="#F4F4F4"/>
<path d="M50.3353 13.7975H51.5262V18.5114H49.0743V16.3056H41.8237V18.5114H39.3718V13.7975H40.3526C40.5277 13.6552 40.6737 13.501 40.7904 13.335C40.9189 13.169 41.0356 12.9081 41.1407 12.5523C41.2574 12.1847 41.3509 11.8112 41.4209 11.4317C41.491 11.0403 41.5669 10.4415 41.6486 9.63506C41.742 8.82866 41.8237 8.02819 41.8938 7.23365C41.9638 6.42725 42.0572 5.30066 42.174 3.85389H50.3353V13.7975ZM44.4683 6.36203C44.3281 8.66264 44.1589 10.3525 43.9604 11.4317C43.7619 12.499 43.47 13.2876 43.0847 13.7975H47.6907V6.36203H44.4683Z" fill="#F4F4F4"/>
<path d="M56.3367 13.7975H61.2229V16.3056H53.6746V3.85389H61.0303V6.34424H56.3367V8.79902H60.575V11.236H56.3367V13.7975Z" fill="#F4F4F4"/>
<path d="M65.7518 3.85389H73.8956V16.3056H71.2511V6.36203H68.0636L67.4857 11.7519C67.3222 13.2935 66.8844 14.4438 66.1722 15.2028C65.4716 15.9617 64.4792 16.3412 63.1949 16.3412H62.5118V13.7086H63.2124C64.1581 13.7086 64.701 13.0978 64.8411 11.8764L65.7518 3.85389Z" fill="#F4F4F4"/>
<path d="M81.459 7.62499C82.3113 7.62499 83.0702 7.8088 83.7358 8.17643C84.413 8.54405 84.9384 9.05991 85.312 9.724C85.6973 10.3762 85.8899 11.1233 85.8899 11.9653C85.8899 13.2342 85.4754 14.2778 84.6465 15.096C83.8175 15.9024 82.755 16.3056 81.459 16.3056H76.6953V3.85389H79.3574V7.62499H81.459ZM81.2664 13.7797C81.8268 13.7797 82.2821 13.6137 82.6324 13.2816C82.9944 12.9377 83.1753 12.499 83.1753 11.9653C83.1753 11.6096 83.0936 11.2953 82.9301 11.0225C82.7784 10.7498 82.5565 10.5363 82.2646 10.3822C81.9727 10.228 81.64 10.1509 81.2664 10.1509H79.3574V13.7797H81.2664Z" fill="#F4F4F4"/>
<path d="M95.1171 9.74179C95.6542 10.0264 96.0687 10.4296 96.3605 10.9514C96.6641 11.4613 96.8159 12.0483 96.8159 12.7124C96.8159 13.7086 96.4364 14.5565 95.6775 15.2561C94.9303 15.9558 94.0254 16.3056 92.9629 16.3056H87.7439V3.85389H92.8228C93.8736 3.85389 94.7493 4.16222 95.4499 4.77887C96.1504 5.38367 96.5007 6.14264 96.5007 7.05577C96.5007 7.58941 96.3781 8.09341 96.1329 8.56777C95.8877 9.04212 95.5491 9.43346 95.1171 9.74179ZM93.9262 7.48269C93.9262 7.28109 93.8911 7.1032 93.8211 6.94904C93.7627 6.78301 93.6751 6.64071 93.5584 6.52212C93.4416 6.40353 93.2957 6.31459 93.1205 6.2553C92.9571 6.18414 92.7703 6.14857 92.5601 6.14857H90.3534V8.79902H92.5601C92.9804 8.79902 93.3132 8.68043 93.5584 8.44325C93.8036 8.19421 93.9262 7.87403 93.9262 7.48269ZM92.7002 13.8331C93.1322 13.8331 93.4825 13.7026 93.751 13.4417C94.0196 13.1809 94.1538 12.8429 94.1538 12.4278C94.1538 12.0246 94.0196 11.6926 93.751 11.4317C93.4825 11.1708 93.1322 11.0403 92.7002 11.0403H90.3534V13.8331H92.7002Z" fill="#F4F4F4"/>
<path d="M101.643 13.7975H106.529V16.3056H98.9806V3.85389H106.336V6.34424H101.643V8.79902H105.881V11.236H101.643V13.7975Z" fill="#F4F4F4"/>
<path d="M111.128 2.48419V0.474121H116.399V2.48419H111.128ZM117.012 3.85389H118.939V16.3056H116.277V8.8168L110.603 16.3056H108.764V3.85389H111.426V11.2538L117.012 3.85389Z" fill="#F4F4F4"/>
<path d="M127.367 16.5725C126.187 16.5725 125.113 16.2938 124.144 15.7364C123.175 15.1672 122.416 14.3904 121.867 13.4062C121.319 12.41 121.044 11.3072 121.044 10.0976C121.044 8.24758 121.646 6.7 122.848 5.45483C124.062 4.20965 125.569 3.58706 127.367 3.58706C128.861 3.58706 130.151 4.04363 131.237 4.95676C132.323 5.86989 133.012 7.06763 133.304 8.54998H130.642C130.478 8.06377 130.239 7.64278 129.924 7.28701C129.608 6.91939 129.229 6.64071 128.785 6.45097C128.353 6.24937 127.88 6.14857 127.367 6.14857C126.327 6.14857 125.458 6.52805 124.757 7.28701C124.068 8.03412 123.724 8.97097 123.724 10.0976C123.724 11.2123 124.068 12.1432 124.757 12.8903C125.458 13.6374 126.327 14.011 127.367 14.011C128.172 14.011 128.867 13.7797 129.451 13.3172C130.035 12.8547 130.437 12.2262 130.659 11.4317H133.339C133.059 12.9733 132.37 14.2185 131.272 15.1672C130.186 16.104 128.884 16.5725 127.367 16.5725Z" fill="#F4F4F4"/>
<rect x="16.2972" y="3.95312" width="12.3529" height="12.1622" transform="rotate(90 16.2972 3.95312)" fill="#EFEFEF"/>
<rect x="14.5946" y="5.9292" width="8.4" height="8.51352" transform="rotate(90 14.5946 5.9292)" fill="#A7DAFF"/>
<rect x="20.4324" y="11.6118" width="7.41177" height="7.2973" transform="rotate(90 20.4324 11.6118)" fill="#8E3FFE"/>
<rect x="7.05408" y="13.3413" width="5.18823" height="5.10811" transform="rotate(90 7.05408 13.3413)" fill="#FF8D8D"/>
<rect x="5.10815" y="5.68262" width="5.18824" height="5.10811" transform="rotate(90 5.10815 5.68262)" fill="#313131"/>
<rect x="18.973" y="1.48242" width="2.71765" height="2.67568" transform="rotate(90 18.973 1.48242)" fill="#313131"/>
<rect x="5.83789" y="3.45898" width="3.21176" height="3.16216" transform="rotate(90 5.83789 3.45898)" fill="#8E3FFE"/>
<rect x="17.7567" y="2.71777" width="4.44706" height="4.37838" transform="rotate(90 17.7567 2.71777)" fill="#FFDA57"/>
<rect x="18.4865" y="17.541" width="3.45882" height="3.40541" transform="rotate(90 18.4865 17.541)" fill="#FFDA57"/>
<rect x="13.3784" y="1.23535" width="1.48235" height="1.45946" transform="rotate(90 13.3784 1.23535)" fill="#40C3AB"/>
<rect x="2.91895" y="17.0469" width="2.22353" height="2.18919" transform="rotate(90 2.91895 17.0469)" fill="#40C3AB"/>
</svg>
