<svg width="100" height="100" viewBox="0 0 100 100" fill="none" xmlns="http://www.w3.org/2000/svg">
<path d="M94.1406 53.1959V10.7422C94.1406 4.81895 89.3217 0 83.3984 0H10.7422C4.81895 0 0 4.81895 0 10.7422V77.5391C0 83.4623 4.81895 88.2812 10.7422 88.2812H35.5469V93.1641C35.5469 96.9334 38.6135 100 42.3828 100H93.1641C96.9334 100 100 96.9334 100 93.1641V59.9609C100 56.5232 97.4488 53.6713 94.1406 53.1959ZM93.1641 58.9844C93.7025 58.9844 94.1406 59.4225 94.1406 59.9609V66.6016H41.4062V59.9609C41.4062 59.4225 41.8443 58.9844 42.3828 58.9844H93.1641ZM10.7422 5.85938H83.3984C86.0908 5.85938 88.2812 8.0498 88.2812 10.7422V17.7734H5.85938V10.7422C5.85938 8.0498 8.0498 5.85938 10.7422 5.85938ZM10.7422 82.4219C8.0498 82.4219 5.85938 80.2314 5.85938 77.5391V23.6328H88.2812V53.125H42.3828C38.6135 53.125 35.5469 56.1916 35.5469 59.9609V82.4219H10.7422ZM93.1641 94.1406H42.3828C41.8443 94.1406 41.4062 93.7025 41.4062 93.1641V86.0299C41.458 85.8119 41.4883 85.5855 41.4883 85.3516C41.4883 85.1176 41.458 84.8914 41.4062 84.6732V72.4609H94.1406V93.1641C94.1406 93.7025 93.7025 94.1406 93.1641 94.1406Z" fill="#474A54"/>
<path d="M23.6242 44.1891C22.4861 43.7867 19.7484 42.7873 18.8062 42.0281C17.9904 41.3707 18.5842 40.1883 19.2836 39.7922C21.175 38.7211 23.0158 40.4967 23.4699 40.7359C24.6164 41.3396 26.0681 41.1256 26.9879 40.1277C28.0845 38.9381 28.009 37.0846 26.8193 35.9881C26.7267 35.9174 25.6388 34.7365 23.4379 34.0615V32.4219C23.4379 30.8039 22.1261 29.4922 20.5082 29.4922C18.8902 29.4922 17.5785 30.8039 17.5785 32.4219V34.1543C15.0834 35.0068 13.2328 37.1758 12.723 39.8813C11.7429 45.0816 15.325 47.3012 20.0275 49.1098C21.6916 49.7498 22.9092 49.923 23.1453 51.2369C23.6185 53.8684 20.1248 55.7828 16.5142 53.4209C15.1601 52.5354 13.3445 52.9146 12.4588 54.2687C11.573 55.6228 11.9527 57.4385 13.3066 58.3242C14.9144 59.376 16.1771 59.8793 17.5785 60.1061V61.7188C17.5785 63.3367 18.8902 64.6484 20.5082 64.6484C22.1261 64.6484 23.4379 63.3367 23.4379 61.7188V59.7072C30.4215 57.0551 31.2941 46.9 23.6242 44.1891Z" fill="#474A54"/>
<path d="M51.7578 82.2266H48.8281C47.2102 82.2266 45.8984 83.5383 45.8984 85.1562C45.8984 86.7742 47.2102 88.0859 48.8281 88.0859H51.7578C53.3758 88.0859 54.6875 86.7742 54.6875 85.1562C54.6875 83.5383 53.3758 82.2266 51.7578 82.2266Z" fill="#474A54"/>
<path d="M63.4766 82.2266H60.5469C58.9289 82.2266 57.6172 83.5383 57.6172 85.1562C57.6172 86.7742 58.9289 88.0859 60.5469 88.0859H63.4766C65.0945 88.0859 66.4062 86.7742 66.4062 85.1562C66.4062 83.5383 65.0945 82.2266 63.4766 82.2266Z" fill="#474A54"/>
<path d="M75 82.2266H72.0703C70.4523 82.2266 69.1406 83.5383 69.1406 85.1562C69.1406 86.7742 70.4523 88.0859 72.0703 88.0859H75C76.618 88.0859 77.9297 86.7742 77.9297 85.1562C77.9297 83.5383 76.618 82.2266 75 82.2266Z" fill="#474A54"/>
<path d="M86.7188 82.2266H83.7891C82.1711 82.2266 80.8594 83.5383 80.8594 85.1562C80.8594 86.7742 82.1711 88.0859 83.7891 88.0859H86.7188C88.3367 88.0859 89.6484 86.7742 89.6484 85.1562C89.6484 83.5383 88.3367 82.2266 86.7188 82.2266Z" fill="#474A54"/>
<path d="M38.2812 35.3516H79.2969C80.9148 35.3516 82.2266 34.0398 82.2266 32.4219C82.2266 30.8039 80.9148 29.4922 79.2969 29.4922H38.2812C36.6633 29.4922 35.3516 30.8039 35.3516 32.4219C35.3516 34.0398 36.6633 35.3516 38.2812 35.3516Z" fill="#474A54"/>
<path d="M38.2812 47.0703H79.2969C80.9148 47.0703 82.2266 45.7586 82.2266 44.1406C82.2266 42.5227 80.9148 41.2109 79.2969 41.2109H38.2812C36.6633 41.2109 35.3516 42.5227 35.3516 44.1406C35.3516 45.7586 36.6633 47.0703 38.2812 47.0703Z" fill="#474A54"/>
</svg>
