<svg width="244" height="243" viewBox="0 0 244 243" fill="none" xmlns="http://www.w3.org/2000/svg">
<path d="M144.875 205.031H27.9583C16.7242 205.031 7.625 195.969 7.625 184.781V27.8438C7.625 16.6556 16.7242 7.59375 27.9583 7.59375H144.875C156.109 7.59375 165.208 16.6556 165.208 27.8438V184.781C165.208 195.969 156.109 205.031 144.875 205.031Z" fill="#F7F7F7"/>
<path d="M224.033 235.406H172.477C166.865 235.406 162.311 230.87 162.311 225.281V189.844C162.311 184.255 166.865 179.719 172.477 179.719H224.033C229.645 179.719 234.199 184.255 234.199 189.844V225.281C234.199 230.87 229.645 235.406 224.033 235.406Z" fill="#FFDA57"/>
<path d="M226.208 243H170.292C160.481 243 152.5 235.052 152.5 225.281V189.844C152.5 180.073 160.481 172.125 170.292 172.125H226.208C236.019 172.125 244 180.073 244 189.844V225.281C244 235.052 236.019 243 226.208 243ZM170.292 187.312C168.889 187.312 167.75 188.447 167.75 189.844V225.281C167.75 226.679 168.889 227.812 170.292 227.812H226.208C227.611 227.812 228.75 226.679 228.75 225.281V189.844C228.75 188.447 227.611 187.312 226.208 187.312H170.292Z" fill="black"/>
<path d="M216.042 187.313H180.458C176.249 187.313 172.833 183.911 172.833 179.719V156.938C172.833 142.975 184.23 131.625 198.25 131.625C212.27 131.625 223.667 142.975 223.667 156.938V179.719C223.667 183.911 220.251 187.313 216.042 187.313ZM188.083 172.125H208.417V156.938C208.417 151.349 203.862 146.813 198.25 146.813C192.638 146.813 188.083 151.349 188.083 156.938V172.125Z" fill="black"/>
<path d="M129.625 212.625H27.9583C12.5355 212.625 0 200.141 0 184.781V27.8438C0 12.4841 12.5355 0 27.9583 0H144.875C160.298 0 172.833 12.4841 172.833 27.8438V122.006C172.833 126.198 169.417 129.6 165.208 129.6C160.999 129.6 157.583 126.198 157.583 122.006V27.8438C157.583 20.8676 151.88 15.1875 144.875 15.1875H27.9583C20.9535 15.1875 15.25 20.8676 15.25 27.8438V184.781C15.25 191.757 20.9535 197.438 27.9583 197.438H129.625C133.834 197.438 137.25 200.839 137.25 205.031C137.25 209.223 133.834 212.625 129.625 212.625Z" fill="black"/>
<path d="M134.708 96.1875H38.125C33.916 96.1875 30.5 92.7855 30.5 88.5938C30.5 84.402 33.916 81 38.125 81H134.708C138.917 81 142.333 84.402 142.333 88.5938C142.333 92.7855 138.917 96.1875 134.708 96.1875Z" fill="black"/>
<path d="M94.0417 136.688H38.125C33.916 136.688 30.5 133.285 30.5 129.094C30.5 124.902 33.916 121.5 38.125 121.5H94.0417C98.2507 121.5 101.667 124.902 101.667 129.094C101.667 133.285 98.2507 136.688 94.0417 136.688Z" fill="black"/>
<path d="M83.875 55.6875H38.125C33.916 55.6875 30.5 52.2855 30.5 48.0938C30.5 43.902 33.916 40.5 38.125 40.5H83.875C88.084 40.5 91.5 43.902 91.5 48.0938C91.5 52.2855 88.084 55.6875 83.875 55.6875Z" fill="black"/>
</svg>
