<svg width="88" height="88" viewBox="0 0 88 88" fill="none" xmlns="http://www.w3.org/2000/svg">
<path d="M25.6236 45.0903C25.6236 42.7207 23.9781 41.3064 21.0744 41.3064C19.8898 41.3064 19.0873 41.4206 18.6665 41.5352V49.1444C19.164 49.2574 19.7756 49.296 20.6144 49.296C23.7124 49.296 25.6236 47.7289 25.6236 45.0903Z" fill="#FF5B5B"/>
<path d="M43.5966 41.3828C42.2953 41.3828 41.4562 41.4974 40.9574 41.6121V58.4712C41.4552 58.5877 42.2582 58.5877 42.9848 58.5877C48.2599 58.6246 51.7008 55.7205 51.7008 49.565C51.7394 44.2107 48.6037 41.3828 43.5966 41.3828Z" fill="#FF5B5B"/>
<path d="M78.0345 31.4772H75.9214V21.2815C75.9214 21.2179 75.9114 21.1538 75.9029 21.0894C75.8996 20.6846 75.7708 20.2869 75.4936 19.9719L58.5268 0.59018C58.5217 0.585228 58.5167 0.58347 58.5132 0.578038C58.4121 0.465083 58.2942 0.371139 58.1695 0.289818C58.1326 0.265054 58.0954 0.244284 58.0567 0.222875C57.9487 0.163921 57.8342 0.115032 57.7163 0.0797239C57.6843 0.0707769 57.6556 0.057676 57.6236 0.0493681C57.4955 0.0190123 57.3624 0 57.2276 0H15.5294C13.6253 0 12.0784 1.54862 12.0784 3.45113V31.4764H9.96582C7.24195 31.4764 5.03333 33.6841 5.03333 36.4089V62.0587C5.03333 64.7817 7.24195 66.9908 9.96582 66.9908H12.0786V84.5489C12.0786 86.4512 13.6255 88 15.5296 88H72.4706C74.373 88 75.9216 86.4514 75.9216 84.5489V66.9908H78.0347C80.7578 66.9908 82.9669 64.7817 82.9669 62.0587V36.4097C82.9667 33.685 80.7576 31.4772 78.0345 31.4772ZM15.5294 3.45177H55.5021V21.1081C55.5021 22.0615 56.2755 22.8336 57.2276 22.8336H72.4705V31.4783H15.5294V3.45177ZM57.8931 49.3718C57.8931 54.3048 56.0969 57.706 53.6082 59.8099C50.8968 62.0653 46.7669 63.1353 41.7221 63.1353C38.7025 63.1353 36.5621 62.944 35.1076 62.7536V37.4439C37.2483 37.1005 40.0409 36.9093 42.9848 36.9093C47.8756 36.9093 51.0495 37.7893 53.5356 39.6614C56.2106 41.6497 57.8931 44.8222 57.8931 49.3718ZM12.8932 62.8683V37.4439C14.6892 37.1397 17.2137 36.9093 20.7691 36.9093C24.3625 36.9093 26.9245 37.5976 28.6442 38.9748C30.2885 40.2738 31.3946 42.4152 31.3946 44.9385C31.3946 47.4627 30.5558 49.6034 29.0254 51.0552C27.0376 52.929 24.0942 53.7706 20.6525 53.7706C19.8891 53.7706 19.1986 53.7318 18.6658 53.6551V62.8689H12.8932V62.8683ZM72.4706 83.6147H15.5294V66.9908H72.4705V83.6147H72.4706ZM77.4709 41.8793H67.5671V47.7669H76.8197V52.5079H67.5671V62.8684H61.7207V37.1005H77.4709V41.8793Z" fill="#FF5B5B"/>
</svg>
