<svg width="244" height="244" viewBox="0 0 244 244" fill="none" xmlns="http://www.w3.org/2000/svg">
<g clip-path="url(#clip0)">
<path d="M243.553 175.833L196.938 71.9293C196.115 70.0882 194.021 69.0215 192.261 68.9303L143.43 69.2952C141.459 69.3063 139.659 70.4754 138.845 72.2849L121.909 109.688C120.781 112.178 121.818 115.118 124.277 116.337L144.773 126.503C147.111 127.704 150.071 126.84 151.413 124.511L167.75 96.502L234.525 210.979C235.45 212.565 237.138 213.5 238.916 213.5C239.354 213.5 239.8 213.45 240.249 213.327C242.464 212.727 244 210.715 244 208.416V177.916C244 177.205 243.847 176.494 243.553 175.833Z" fill="#607D8B"/>
<path d="M188.084 193.166H172.661C170.038 153.487 136.915 122 96.5839 122C56.253 122 23.1189 153.487 20.5071 193.166H5.08395C2.2767 193.166 0 195.445 0 198.25V238.916C0 241.723 2.2767 244 5.08395 244H188.084C190.889 244 193.166 241.723 193.166 238.916V198.25C193.166 195.445 190.889 193.166 188.084 193.166ZM127.084 203.334H66.0839C63.2767 203.334 61 201.055 61 198.25C61 178.629 76.9611 162.666 96.5839 162.666C116.205 162.666 132.166 178.629 132.166 198.25C132.166 201.055 129.889 203.334 127.084 203.334Z" fill="#CFD8DC"/>
<path d="M198.25 55.916C198.25 72.7614 184.595 86.416 167.75 86.416C150.905 86.416 137.25 72.7614 137.25 55.916C137.25 39.0725 150.905 25.416 167.75 25.416C184.595 25.416 198.25 39.0725 198.25 55.916Z" fill="#90A4AE"/>
<path d="M177.916 55.916C177.916 61.5324 173.365 66.084 167.75 66.084C162.136 66.084 157.584 61.5324 157.584 55.916C157.584 50.3015 162.136 45.75 167.75 45.75C173.365 45.75 177.916 50.3015 177.916 55.916Z" fill="#607D8B"/>
<path d="M238.916 213.5C237.138 213.5 235.45 212.566 234.525 210.979L167.75 96.5021L151.422 124.5C150 126.931 146.878 127.734 144.469 126.332C142.049 124.917 141.224 121.806 142.639 119.377L163.358 83.8452C165.168 80.7141 170.311 80.7141 172.132 83.8452L233.834 189.609V179.005L187.667 76.0881C186.518 73.5247 187.656 70.5164 190.219 69.3678C192.769 68.2192 195.789 69.3566 196.938 71.9181L243.553 175.822C243.847 176.494 244 177.205 244 177.916V208.416C244 210.715 242.464 212.727 240.249 213.327C239.8 213.45 239.353 213.5 238.916 213.5Z" fill="black"/>
<path d="M126.535 116.866C125.833 116.866 125.111 116.724 124.441 116.419C121.877 115.259 120.749 112.251 121.909 109.688L138.845 72.2848C139.985 69.7233 143.045 68.6045 145.566 69.7438C148.129 70.9017 149.257 73.9118 148.097 76.4733L131.161 113.876C130.316 115.758 128.476 116.866 126.535 116.866Z" fill="black"/>
<path d="M167.75 30.5C164.945 30.5 162.666 28.2233 162.666 25.416V5.08395C162.666 2.2767 164.945 0 167.75 0C170.555 0 172.834 2.2767 172.834 5.08395V25.416C172.834 28.2233 170.555 30.5 167.75 30.5Z" fill="black"/>
<path d="M188.084 244H5.08395C2.2767 244 0 241.723 0 238.916V198.25C0 195.445 2.2767 193.166 5.08395 193.166H20.5071C23.13 153.487 56.253 122 96.5839 122C136.915 122 170.047 153.487 172.661 193.166H188.084C190.889 193.166 193.166 195.445 193.166 198.25V238.916C193.166 241.723 190.889 244 188.084 244ZM10.166 233.834H183V203.334H167.75C164.945 203.334 162.666 201.055 162.666 198.25C162.666 161.813 133.02 132.166 96.5839 132.166C60.1455 132.166 30.5 161.813 30.5 198.25C30.5 201.055 28.2233 203.334 25.416 203.334H10.166V233.834ZM172.834 198.25H172.934H172.834Z" fill="black"/>
<path d="M127.084 203.334H66.084C63.2767 203.334 61 201.055 61 198.25C61 178.629 76.9611 162.666 96.584 162.666C116.205 162.666 132.166 178.629 132.166 198.25C132.166 201.055 129.889 203.334 127.084 203.334ZM71.6743 193.166H121.492C119.133 181.576 108.854 172.834 96.584 172.834C84.3125 172.834 74.0329 181.576 71.6743 193.166Z" fill="black"/>
<path d="M167.75 91.5C148.129 91.5 132.166 75.5389 132.166 55.9161C132.166 36.2951 148.129 20.334 167.75 20.334C187.371 20.334 203.334 36.2951 203.334 55.9161C203.334 75.5389 187.371 91.5 167.75 91.5ZM167.75 30.5C153.73 30.5 142.334 41.9077 142.334 55.9161C142.334 69.9263 153.73 81.334 167.75 81.334C181.769 81.334 193.166 69.9263 193.166 55.9161C193.166 41.9077 181.769 30.5 167.75 30.5Z" fill="black"/>
<path d="M167.75 66.084C162.137 66.084 157.584 61.5194 157.584 55.916C157.584 50.3146 162.137 45.75 167.75 45.75C173.363 45.75 177.916 50.3146 177.916 55.916C177.916 61.5194 173.363 66.084 167.75 66.084ZM167.75 55.9067C167.75 55.916 167.75 55.916 167.75 55.9067L172.834 55.916L167.75 55.9067Z" fill="black"/>
<path d="M167.75 244H25.4161C22.6107 244 20.334 241.723 20.334 238.916V228.75C20.334 225.945 22.6107 223.666 25.4161 223.666C28.2233 223.666 30.5 225.945 30.5 228.75V233.834H40.6661V218.584C40.6661 215.777 42.9446 213.5 45.75 213.5C48.5554 213.5 50.834 215.777 50.834 218.584V233.834H61V228.75C61 225.945 63.2767 223.666 66.084 223.666C68.8894 223.666 71.1661 225.945 71.1661 228.75V233.834H81.334V228.75C81.334 225.945 83.6107 223.666 86.4161 223.666C89.2233 223.666 91.5 225.945 91.5 228.75V233.834H101.666V218.584C101.666 215.777 103.945 213.5 106.75 213.5C109.555 213.5 111.834 215.777 111.834 218.584V233.834H122V228.75C122 225.945 124.277 223.666 127.084 223.666C129.889 223.666 132.166 225.945 132.166 228.75V233.834H142.334V228.75C142.334 225.945 144.611 223.666 147.416 223.666C150.223 223.666 152.5 225.945 152.5 228.75V233.834H162.666V218.584C162.666 215.777 164.945 213.5 167.75 213.5C170.555 213.5 172.834 215.777 172.834 218.584V238.916C172.834 241.723 170.555 244 167.75 244Z" fill="black"/>
</g>
<defs>
<clipPath id="clip0">
<rect width="244" height="244" fill="white"/>
</clipPath>
</defs>
</svg>
