<svg width="69" height="102" viewBox="0 0 69 102" fill="none" xmlns="http://www.w3.org/2000/svg">
<path d="M21.3374 71.2622V68.6432C21.3374 64.9676 21.7068 61.7054 22.4458 58.8568C23.2771 55.9162 24.5241 53.4351 26.1868 51.4135C27.8494 49.3 29.2811 47.7378 30.4819 46.727C31.6827 45.6243 33.3916 44.2919 35.6084 42.7297C37.5482 41.3514 38.9799 40.2486 39.9036 39.4216C40.9197 38.5946 41.8434 37.4459 42.6747 35.9757C43.5984 34.4135 44.0602 32.7595 44.0602 31.0135C44.0602 28.1649 43.1366 25.8676 41.2892 24.1216C39.4418 22.3757 37.1325 21.5027 34.3615 21.5027C33.0683 21.5027 31.7751 21.7324 30.4819 22.1919C29.2811 22.6513 28.2189 23.2946 27.2952 24.1216C26.3715 24.9486 25.5863 26.0054 24.9398 27.2919C24.3855 28.5784 24.1084 30.0027 24.1084 31.5649H0C0 21.6405 3.27912 13.9216 9.83735 8.40811C16.3956 2.8027 24.6165 0 34.5 0C44.4759 0 52.6968 2.84865 59.1627 8.54594C65.7209 14.1513 69 21.5946 69 30.8757C69 33.9081 68.6305 36.6649 67.8916 39.1459C67.1526 41.627 65.9518 43.8784 64.2892 45.9C62.7189 47.8297 61.3333 49.3459 60.1325 50.4487C59.0241 51.4595 57.3615 52.8378 55.1446 54.5838C53.4819 55.8703 52.2349 56.8811 51.4036 57.6162C50.5723 58.3513 49.6024 59.3622 48.494 60.6486C47.3855 61.8432 46.6004 63.0838 46.1386 64.3703C45.6767 65.6568 45.4458 67.0811 45.4458 68.6432V71.2622H21.3374ZM20.7831 102V78.1541H45.7229V102H20.7831Z" fill="#C8C8C8"/>
</svg>
