<svg width="100" height="100" viewBox="0 0 100 100" fill="none" xmlns="http://www.w3.org/2000/svg">
<path d="M99.5389 85.8429L85.8331 62.9132C85.2444 61.9284 84.1813 61.3255 83.0342 61.3255H75.1611L66.1417 52.3067L67.1925 51.2559C76.1088 53.6354 85.7976 51.0983 92.3781 44.5173C99.4568 37.4386 101.857 26.7633 98.4938 17.3204C97.6912 15.0675 94.8088 14.4171 93.1164 16.1089L79.778 29.4487L72.0922 27.9114L70.5549 20.2254L83.8932 6.88755C85.5841 5.19692 84.9362 2.31349 82.6821 1.51036C73.2404 -1.8549 62.5661 0.545317 55.4874 7.62369C50.8399 12.2706 48.2123 18.4673 47.9047 24.8469L25.9176 2.85959C22.1054 -0.952351 15.8952 -0.953914 12.0849 2.8592L2.86057 12.0815C-0.953523 15.896 -0.953523 22.1021 2.86057 25.9166L29.2506 52.3065L20.6363 60.9208C20.2966 60.8901 19.9406 60.8704 19.5679 60.8704C8.77995 60.8704 0.00312502 69.6472 0.00312502 80.4352C0.00312502 91.2232 8.77995 100 19.5679 100C30.3559 100 39.1327 91.2232 39.1327 80.4352C39.1327 80.0625 39.1128 79.7063 39.0823 79.3664L52.3078 66.1409L61.3265 75.1604V83.0319C61.3265 84.179 61.9292 85.2421 62.9142 85.8307L85.8446 99.5381C87.1265 100.304 88.7665 100.102 89.8234 99.0449L99.0455 89.8218C100.102 88.7651 100.305 87.1257 99.5389 85.8429ZM7.47193 21.3052C6.20044 20.0336 6.20044 17.9646 7.47174 16.6931L16.6972 7.47018C17.9591 6.20728 20.0423 6.20708 21.3062 7.47096C48.992 35.1567 47.2908 33.5106 47.7527 33.8044L43.0847 38.4724L18.6128 14.0003C17.3396 12.7271 15.2749 12.7271 14.0015 14.0003C12.728 15.2736 12.728 17.3382 14.0015 18.6117L38.4735 43.0837L33.8622 47.6951L7.47193 21.3052ZM50.0043 59.221C50.0037 59.2216 50.0027 59.2223 50.0022 59.2229C50.0016 59.2235 50.0008 59.2245 50.0002 59.2251L33.3399 75.8854C32.6171 76.608 32.2751 77.628 32.4161 78.6403C32.5255 79.411 32.6112 79.9534 32.6112 80.4346C32.6112 87.6267 26.76 93.4777 19.5681 93.4777C12.3761 93.4777 6.52505 87.6265 6.52505 80.4346C6.52505 73.2428 12.3763 67.3915 19.5681 67.3915C19.991 67.3915 20.4687 67.4595 21.022 67.5386C22.2144 67.7068 23.2219 67.5578 24.1172 66.6628L54.7498 36.0302C55.6405 35.1395 55.9385 33.8159 55.5157 32.6296C52.9912 25.5486 54.7901 17.5431 60.0983 12.2354C64.0644 8.27018 69.5365 6.26646 75.0023 6.55454L64.7091 16.8474C63.9382 17.6183 63.6034 18.7234 63.8173 19.7927L66.1234 31.3215C66.3816 32.6124 67.3906 33.621 68.6812 33.8796L80.21 36.1856C81.279 36.3989 82.3844 36.0647 83.1553 35.2936L93.4484 24.9996C93.739 30.4674 91.7322 35.9401 87.7665 39.9056C82.4594 45.2134 74.4545 47.0119 67.3728 44.4875C66.1863 44.064 64.8626 44.3625 63.9722 45.2531L50.0043 59.221ZM87.0091 92.6361L67.8478 81.1823V73.8098C67.8478 72.9447 67.5042 72.1156 66.8929 71.5041L56.919 61.5296L61.5304 56.9182L71.5049 66.8917C72.1164 67.5033 72.9457 67.847 73.8105 67.847H81.1842L92.6371 87.0077L87.0091 92.6361Z" fill="#474A54"/>
</svg>
