<svg width="88" height="87" viewBox="0 0 88 87" fill="none" xmlns="http://www.w3.org/2000/svg">
<path d="M78.0347 31.1199H75.9216V21.0387C75.9216 20.9759 75.9116 20.9126 75.9031 20.8489C75.8997 20.4486 75.7707 20.0556 75.4935 19.7441L58.527 0.583448C58.5217 0.578529 58.5168 0.576783 58.5134 0.571547C58.4123 0.45984 58.2945 0.366856 58.1694 0.286567C58.1327 0.262131 58.0954 0.241662 58.0568 0.220241C57.9489 0.162166 57.8342 0.11377 57.7164 0.0787027C57.6842 0.0699756 57.6555 0.0574403 57.6237 0.0488719C57.4955 0.0187236 57.3625 0 57.2278 0H15.5294C13.6254 0 12.0785 1.53105 12.0785 3.41183V31.119H9.96541C7.24207 31.119 5.03345 33.3013 5.03345 35.9951V61.3532C5.03345 64.0445 7.24207 66.2295 9.96541 66.2295H12.0785V83.5883C12.0785 85.4693 13.6254 87 15.5294 87H72.4705C74.3729 87 75.9214 85.4693 75.9214 83.5883V66.2296H78.0345C80.7576 66.2296 82.9665 64.0456 82.9665 61.3534V35.996C82.9667 33.3014 80.7577 31.1199 78.0347 31.1199ZM15.5294 3.41183H55.5023V20.867C55.5023 21.81 56.2754 22.5729 57.2278 22.5729H72.4707V31.1198H15.5294V3.41183ZM32.5514 35.7085H39.241L41.4981 40.3577C42.2614 41.9057 42.836 43.1539 43.4477 44.5905H43.5247C44.1343 42.9653 44.6322 41.8308 45.2822 40.3577L47.4629 35.7085H54.1154L46.8511 48.1427L54.4969 61.1834H47.7677L45.4364 56.5723C44.4805 54.7957 43.8682 53.4737 43.1415 51.9985H43.0647C42.5296 53.4737 41.8801 54.7957 41.0776 56.5723L38.9372 61.1834H32.2837L39.7397 48.2952L32.5514 35.7085ZM10.6058 40.5465V35.7087H30.4085V40.5465H23.3741V61.182H17.5265V40.5465H10.6058ZM72.4707 82.6636H15.5294V66.2296H72.4705V82.6636H72.4707ZM75.7176 40.5465H68.6828V61.182H62.8339V40.5465H55.9133V35.7087H75.7177V40.5465H75.7176Z" fill="#474A54"/>
</svg>
