<svg width="100" height="100" viewBox="0 0 100 100" fill="none" xmlns="http://www.w3.org/2000/svg">
<path d="M64.8152 29.0285C64.7052 28.6619 64.4152 28.1502 63.6702 27.7785C63.3036 27.5985 62.9402 27.5053 62.5835 27.5053C62.0251 27.5053 61.2236 27.7303 60.5986 28.7936L35.787 68.55C35.3337 69.2133 35.1671 69.8533 35.2921 70.45C35.3704 70.8217 35.6071 71.3584 36.3005 71.7933C36.6737 72.0234 37.0622 72.14 37.452 72.14C38.202 72.14 38.877 71.73 39.4987 70.8701L64.5169 30.8303C64.8835 30.1901 64.9835 29.5852 64.8152 29.0285Z" fill="#474A54"/>
<path d="M45.8287 32.4117C43.8338 30.4584 41.3588 29.4618 38.4671 29.4618C35.537 29.4618 33.0421 30.4584 31.0355 32.425C29.0771 34.4217 28.0855 36.9217 28.0855 39.8416C28.0855 42.7316 29.0988 45.2132 31.0905 47.1999C33.0905 49.2415 35.5706 50.2816 38.4655 50.2816C41.3239 50.2833 43.7872 49.2433 45.7739 47.2165C47.8155 45.2199 48.8471 42.7382 48.8471 39.8433C48.8471 36.9185 47.8338 34.4184 45.8287 32.4117ZM42.1471 43.5252C41.0971 44.5802 39.8954 45.0884 38.4704 45.0884C36.9737 45.0884 35.7554 44.58 34.7421 43.53C33.7587 42.5201 33.2804 41.3334 33.2804 39.8967C33.2804 38.3883 33.7587 37.1666 34.7355 36.1617C35.7087 35.185 36.9288 34.7117 38.4688 34.7117C39.9387 34.7117 41.1438 35.19 42.1604 36.1768C43.2053 37.1867 43.7137 38.4035 43.7137 39.8967C43.7137 41.3183 43.2055 42.5002 42.1471 43.5252Z" fill="#474A54"/>
<path d="M69.5486 52.335C67.552 50.3817 65.0737 49.385 62.1854 49.385C59.2588 49.385 56.7637 50.3817 54.7688 52.335C52.7638 54.2983 51.7489 56.7784 51.7489 59.7133C51.7489 62.6033 52.7622 65.0849 54.7622 67.0816C56.7956 69.1132 59.2938 70.1482 62.1871 70.1482C65.082 70.1482 67.5639 69.1132 69.5555 67.0816C71.5555 65.0799 72.5687 62.6033 72.5687 59.7133C72.5685 56.7832 71.5535 54.3034 69.5486 52.335ZM65.8568 63.3982C64.8418 64.4432 63.6403 64.9515 62.1852 64.9515C60.7301 64.9515 59.5286 64.4432 58.5036 63.3883C57.4903 62.3783 56.9969 61.1717 56.9969 59.7115C56.9969 58.2416 57.4753 57.0315 58.4469 56.0299C59.462 55.0149 60.6852 54.5215 62.1852 54.5215C63.6469 54.5215 64.8518 55.0149 65.8768 56.0399C66.8834 57.0166 67.3734 58.2182 67.3734 59.7115C67.3736 61.1717 66.8803 62.3732 65.8568 63.3982Z" fill="#474A54"/>
<path d="M99.02 47.029L94.6517 41.1191L96.4267 33.9875C96.9567 31.8559 96.0351 29.6276 94.1517 28.4959L87.8533 24.7075L86.7633 17.4392C86.4383 15.2675 84.7316 13.5609 82.56 13.2359L75.2916 12.1458L71.5034 5.84762C70.585 4.31931 68.9434 3.42439 67.22 3.42439C66.82 3.42439 66.4134 3.47264 66.0116 3.57264L58.88 5.34763L52.9703 0.979291C52.0887 0.327537 51.0453 0.000976562 50.0004 0.000976562C48.9555 0.000976562 47.9121 0.327733 47.0287 0.979291L41.1188 5.34763L33.9872 3.57264C33.5854 3.47264 33.1806 3.42439 32.7788 3.42439C31.0538 3.42439 29.4138 4.32107 28.4939 5.84762L24.7056 12.1458L17.4391 13.2359C15.2674 13.5609 13.5623 15.2675 13.2358 17.4392L12.1455 24.7075L5.84733 28.4957C3.9657 29.6274 3.04227 31.8557 3.57234 33.9873L5.34733 41.1189L0.978803 47.029C-0.326268 48.7956 -0.326268 51.2073 0.978803 52.9739L5.34714 58.8838L3.57215 66.0154C3.04207 68.1471 3.96375 70.3754 5.84713 71.507L12.1453 75.2953L13.2354 82.5636C13.5604 84.7353 15.267 86.4419 17.4387 86.7669L24.7052 87.8569L28.4935 94.1551C29.4118 95.6834 31.0534 96.5783 32.7784 96.5783C33.1784 96.5783 33.5835 96.5301 33.9868 96.4301L41.1184 94.6551L47.0283 99.0234C47.9117 99.6734 48.9551 100 50 100C51.0449 100 52.0883 99.6736 52.9717 99.0219L58.8816 94.6535L66.0132 96.4285C66.4149 96.5285 66.8198 96.5768 67.2216 96.5768C68.9466 96.5768 70.5866 95.6801 71.5049 94.1536L75.2932 87.8553L82.5615 86.7653C84.7332 86.4403 86.4398 84.7353 86.7648 82.562L87.8549 75.2937L94.1531 71.5054C96.0347 70.3738 96.9581 68.1455 96.428 66.0139L94.6531 58.8823L99.0214 52.9723C100.327 51.2073 100.327 48.7941 99.02 47.029ZM89.2316 57.804L91.575 67.2205L83.26 72.2222L81.8199 81.8189L72.2233 83.2571L67.2216 91.5737L57.805 89.2303L50 95.0002L42.1967 89.2319L32.7802 91.5752L27.7785 83.2587L18.1818 81.8204L16.7436 72.2238L8.42856 67.2221L10.7719 57.8055L5.00026 50.0005L10.7686 42.1972L8.42524 32.7807L16.7402 27.7789L18.1785 18.1823L27.7751 16.744L32.7769 8.42749L42.1934 10.7708L50 5.00095L57.8033 10.7693L67.2198 8.42593L72.2215 16.7425L81.8182 18.1808L83.2582 27.7774L91.5732 32.7791L89.23 42.1957L94.9999 50.0007L89.2316 57.804Z" fill="#474A54"/>
<path d="M50.0005 15.0003C30.7024 15.0003 15.0007 30.7002 15.0007 50.0001C15.0007 69.3 30.7024 84.9999 50.0005 84.9999C69.2987 84.9999 85.0003 69.3 85.0003 50.0001C85.0003 30.7002 69.2989 15.0003 50.0005 15.0003ZM50.0005 79.9999C33.4323 79.9999 20.0007 66.5684 20.0007 50.0001C20.0007 33.4318 33.4323 20.0003 50.0005 20.0003C66.5688 20.0003 80.0004 33.4318 80.0004 50.0001C80.0004 66.5684 66.5688 79.9999 50.0005 79.9999Z" fill="#474A54"/>
</svg>
