<svg width="162" height="58" viewBox="0 0 162 58" fill="none" xmlns="http://www.w3.org/2000/svg">
<path fill-rule="evenodd" clip-rule="evenodd" d="M11.0066 0L8.25322 7.52789H46.4087L49.1621 0H11.0066ZM6.87568 11.2901L4.12232 18.8163H42.2778L45.0312 11.2901H6.87568ZM2.75336 22.5803L0 30.1064H38.1555L40.9071 22.5803H2.75336Z" fill="#009FDF"/>
<mask id="mask0" mask-type="alpha" maskUnits="userSpaceOnUse" x="57" y="11" width="105" height="47">
<path d="M57.2451 57.5479H161.691V11.4348H57.2451V57.5479Z" fill="white"/>
</mask>
<g mask="url(#mask0)">
<path fill-rule="evenodd" clip-rule="evenodd" d="M81.1159 32.9751V33.1339C82.8596 33.7728 84.5252 34.8898 85.398 35.6072C88.0942 37.8413 89.2845 40.7928 89.2845 44.6223C89.2845 50.9268 85.9532 55.4736 80.4808 56.9101C78.8152 57.3883 77.0715 57.5489 73.8183 57.5489H57.2451V11.4348H71.9167C74.9304 11.4348 76.9917 11.5936 78.8152 12.0719C84.1296 13.5084 87.6188 17.179 87.6188 23.0017C87.6188 26.1138 86.5084 28.7477 84.6848 30.5018C83.8919 31.2995 82.7815 32.2577 81.1159 32.9751ZM66.4443 37.8413V49.9685H72.7894C74.691 49.9685 76.4364 49.8097 77.7065 48.6123C78.9748 47.415 79.53 45.9 79.53 43.9049C79.53 42.3899 79.1327 40.9534 78.3398 39.9166C76.9917 38.241 75.326 37.8413 72.4719 37.8413H66.4443ZM66.3645 29.863H71.5193C73.1052 29.863 73.8981 29.863 74.691 29.6239C76.8338 28.9851 78.1819 27.0721 78.1819 24.4382C78.1819 21.3279 76.754 19.9699 74.691 19.3329C73.8183 19.0937 72.9473 19.0134 71.2018 19.0134H66.3645V29.863ZM103.083 57.5489V19.1723H89.8397V11.4348H126.638L124.022 19.1723H112.282V57.5489H103.083ZM129.492 57.5489V11.4348H159.313L156.696 19.1723H138.614V29.3848H145.989C151.937 29.3848 155.031 30.8212 157.172 32.6557C158.837 34.0922 161.691 37.2828 161.691 43.5873C161.691 49.8097 158.757 53.2395 156.299 54.9954C153.445 56.9886 150.431 57.5489 144.324 57.5489H129.492ZM138.614 49.8097H145.514C148.13 49.8097 149.716 49.1709 150.826 47.7344C151.382 47.017 152.175 45.7394 152.175 43.3464C152.175 40.9534 151.382 39.2778 149.796 38.0805C148.845 37.3631 147.575 36.9651 145.434 36.9651H138.614V49.8097Z" fill="#0A2973"/>
</g>
</svg>
