<svg width="88" height="88" viewBox="0 0 88 88" fill="none" xmlns="http://www.w3.org/2000/svg">
<path d="M78.0354 31.4772H75.9223V21.2815C75.9223 21.2179 75.9123 21.1539 75.9048 21.0889C75.9014 20.6844 75.7717 20.2869 75.4945 19.9718L58.5269 0.590154C58.5216 0.585178 58.5167 0.583413 58.5133 0.578116C58.4122 0.465125 58.2944 0.371073 58.1693 0.289861C58.1326 0.265144 58.0954 0.24444 58.0567 0.222612C57.9488 0.16403 57.8341 0.114757 57.7163 0.0792864C57.6842 0.0709404 57.6554 0.0577795 57.6236 0.0494336C57.4954 0.0189388 57.3624 0 57.2277 0H15.5293C13.6253 0 12.0785 1.54865 12.0785 3.45104V31.4762H9.96565C7.24183 31.4762 5.0332 33.684 5.0332 36.4088V62.0584C5.0332 64.7806 7.24183 66.9907 9.96565 66.9907H12.0785V84.5491C12.0785 86.4517 13.6253 88 15.5293 88H72.4704C74.3728 88 75.9213 86.4517 75.9213 84.5491V66.9909H78.0344C80.7575 66.9909 82.9664 64.7818 82.9664 62.0586V36.4098C82.9666 33.6842 80.7591 31.4772 78.0354 31.4772ZM15.5293 3.45104H55.5022V21.1069C55.5022 22.0602 56.2753 22.8324 57.2277 22.8324H72.4706V31.477H15.5293V3.45104ZM50.489 50.5027C47.0986 49.3216 44.8863 47.446 44.8863 44.4769C44.8863 40.9944 47.7929 38.3303 52.6089 38.3303C54.909 38.3303 56.6058 38.814 57.8158 39.3596L56.7868 43.0832C55.9697 42.6906 54.5164 42.1142 52.5179 42.1142C50.5193 42.1142 49.5506 43.023 49.5506 44.0829C49.5506 45.3853 50.7015 45.9601 53.3351 46.9592C56.9377 48.2921 58.6337 50.1692 58.6337 53.0455C58.6337 56.4678 55.9991 59.3747 50.3972 59.3747C48.0661 59.3747 45.765 58.7698 44.6143 58.133L45.5521 54.3179C46.794 54.9532 48.7022 55.5902 50.6696 55.5902C52.791 55.5902 53.9097 54.7122 53.9097 53.3795C53.9105 52.1086 52.9417 51.3805 50.489 50.5027ZM42.6793 55.1955V59.0727H29.9294V38.6613H34.5642V55.1955H42.6793ZM15.1249 59.0727H9.85635L15.7608 48.7441L10.0674 38.6604H15.3672L17.1528 42.3856C17.7585 43.6272 18.213 44.6252 18.6981 45.7778H18.757C19.2428 44.4753 19.636 43.5669 20.1493 42.3856L21.8756 38.6604H27.1443L21.3907 48.622L27.448 59.0709H22.1191L20.2709 55.3759C19.5152 53.9547 19.0303 52.8938 18.4547 51.7127H18.3946C17.97 52.8938 17.4564 53.9547 16.8199 55.3759L15.1249 59.0727ZM72.4706 83.6147H15.5293V66.9909H72.4704V83.6147H72.4706ZM72.5017 59.0727L70.6541 55.3777C69.8973 53.9552 69.4129 52.8956 68.8374 51.7143H68.7786C68.354 52.8956 67.8384 53.9552 67.2014 55.3777L65.508 59.0727H60.2378L66.1423 48.7441L60.4492 38.6604H65.7489L67.5367 42.3856C68.1418 43.6272 68.5949 44.6252 69.0804 45.7778H69.1409C69.6245 44.4753 70.017 43.5669 70.5326 42.3856L72.2582 38.6604H77.5282L71.7745 48.622L77.8306 59.0709H72.5017V59.0727Z" fill="#158E78"/>
</svg>
