<svg width="1875" height="543" viewBox="0 0 1875 543" fill="none" xmlns="http://www.w3.org/2000/svg">
<path fill-rule="evenodd" clip-rule="evenodd" d="M159 381L159 543L59 543L59 381L159 381Z" fill="#8E3FFE"/>
<path fill-rule="evenodd" clip-rule="evenodd" d="M1912 191L1912 489L1783 489L1783 191L1912 191Z" fill="#F4F4F4"/>
<path d="M1753.5 524.5L1826.5 524.5L1826.5 448.5L1753.5 448.5L1753.5 524.5Z" stroke="#158E78" stroke-width="7"/>
<path d="M3.5 428.5L90.5 428.5L90.5 306.5L3.50002 306.5L3.5 428.5Z" stroke="#F4F4F4" stroke-width="7"/>
<path fill-rule="evenodd" clip-rule="evenodd" d="M140 5.99999L140 63L83 63L83 5.99998L140 5.99999Z" fill="#A7DAFF"/>
<path d="M1684.5 78.5L1756.5 78.5L1756.5 3.5L1684.5 3.49999L1684.5 78.5Z" stroke="#FFDA57" stroke-width="7"/>
</svg>
