<svg width="208" height="266" viewBox="0 0 208 266" fill="none" xmlns="http://www.w3.org/2000/svg">
<path d="M43.8462 48.8406L41.1079 45.2674H40.0615V48.8406H39.0931V41.0486H40.0615V44.3546H41.0967L43.5902 41.0486H44.8369L41.9872 44.7999L45.0929 48.8406H43.8462ZM50.042 42.8296H51.055L48.1942 49.0855C47.9716 49.5752 47.7527 49.9537 47.5374 50.2209C47.3222 50.488 47.0811 50.681 46.8139 50.7997C46.5468 50.9259 46.2202 50.9889 45.8344 50.9889H45.2667V50.1318H45.7564C46.1572 50.1318 46.4577 50.0502 46.6581 49.8869C46.8584 49.7237 47.0811 49.3897 47.326 48.8851L47.5374 48.4287L44.8659 42.8296H45.9011L48.0384 47.3824L50.042 42.8296ZM56.8648 48.8406H55.7962L54.082 46.336L52.3455 48.8406H51.3103L53.5143 45.7127L51.4884 42.8296H52.5459L54.082 45.0559L55.6515 42.8296H56.6867L54.6497 45.6793L56.8648 48.8406ZM62.0264 42.8296H62.9503V48.8406H62.0264V46.1802H58.8094V48.8406H57.8855V42.8296H58.8094V45.2897H62.0264V42.8296ZM66.4339 42.8296H69.1945V48.8406H68.2594V46.5364H66.7567L65.3319 48.8406H64.2855L65.7883 46.4028C65.395 46.2767 65.0833 46.0614 64.8532 45.7572C64.6232 45.4529 64.5082 45.0967 64.5082 44.6886C64.5082 44.1543 64.69 43.7127 65.0536 43.3639C65.4172 43.0077 65.8773 42.8296 66.4339 42.8296ZM66.5118 45.6236H68.2594V43.7424H66.5118C66.2001 43.7424 65.9478 43.8315 65.7549 44.0096C65.5619 44.1802 65.4655 44.4066 65.4655 44.6886C65.4655 44.9632 65.5619 45.1895 65.7549 45.3676C65.9478 45.5383 66.2001 45.6236 66.5118 45.6236ZM45.2112 55.4382H47.5377V62.8406H46.6249V56.2842H45.2112V55.4382ZM51.9574 58.2322C52.5659 58.3212 53.0594 58.581 53.4379 59.0114C53.8164 59.4344 54.0056 59.9501 54.0056 60.5586C54.0056 61.2562 53.7681 61.835 53.2932 62.2951C52.8183 62.7478 52.2283 62.9742 51.5233 62.9742C50.8406 62.9742 50.2729 62.7589 49.8202 62.3285C49.3675 61.8981 49.1226 61.349 49.0855 60.6811H49.9872C50.0169 61.1041 50.1727 61.4454 50.4547 61.7052C50.7367 61.9649 51.0929 62.0948 51.5233 62.0948C51.8201 62.0948 52.0873 62.028 52.3248 61.8944C52.5622 61.7608 52.7478 61.5753 52.8813 61.3378C53.0149 61.093 53.0817 60.8221 53.0817 60.5253C53.0817 60.0726 52.9221 59.7015 52.603 59.4121C52.2914 59.1153 51.8943 58.9669 51.412 58.9669H50.5771V58.7888L52.2914 56.2842H49.3304V55.4382H53.7162V55.6497L51.9574 58.2322ZM55.3768 64.321V63.7867C55.7626 63.6532 55.9556 63.3378 55.9556 62.8406H55.3211V61.6718H56.4676V62.7515C56.4676 63.5901 56.104 64.1133 55.3768 64.321ZM62.9262 60.4585V61.2822H62.147V62.8406H61.2565V61.2822H57.4607V61.0596L60.0654 55.4382H61.0227L58.7074 60.4585H61.2676L61.4123 58.1765H62.147V60.4585H62.9262Z" fill="#474A54"/>
<path d="M35.809 145.817L33.0707 142.244H32.0244V145.817H31.0559V138.025H32.0244V141.331H33.0596L35.553 138.025H36.7997L33.9501 141.777L37.0557 145.817H35.809ZM40.2697 145.951C39.676 145.951 39.1343 145.817 38.6445 145.55C38.1547 145.276 37.7725 144.901 37.4979 144.426C37.2234 143.943 37.0861 143.405 37.0861 142.812C37.0861 141.906 37.3866 141.157 37.9877 140.563C38.5962 139.97 39.3569 139.673 40.2697 139.673C40.8707 139.673 41.4125 139.81 41.8948 140.085C42.3846 140.352 42.7668 140.727 43.0414 141.209C43.3234 141.684 43.4644 142.218 43.4644 142.812C43.4644 143.71 43.1601 144.459 42.5516 145.06C41.9431 145.654 41.1824 145.951 40.2697 145.951ZM38.6779 144.415C39.1009 144.83 39.6315 145.038 40.2697 145.038C40.9153 145.038 41.4459 144.83 41.8614 144.415C42.2844 143.992 42.4959 143.457 42.4959 142.812C42.4959 142.166 42.2844 141.636 41.8614 141.22C41.4459 140.797 40.9153 140.586 40.2697 140.586C39.6315 140.586 39.1009 140.797 38.6779 141.22C38.2623 141.636 38.0545 142.166 38.0545 142.812C38.0545 143.457 38.2623 143.992 38.6779 144.415ZM52.328 145.817H51.4152L50.5581 141.354L48.432 145.695H48.2205L46.1055 141.354L45.2484 145.817H44.3356L45.4822 139.806H46.2725L48.3318 144.014L50.38 139.806H51.1703L52.328 145.817ZM57.8591 139.806H58.783V145.817H57.8591V143.157H54.6422V145.817H53.7183V139.806H54.6422V142.266H57.8591V139.806ZM65.8175 139.806H66.5744V145.817H65.7841L65.6839 144.904C65.4019 145.238 65.0569 145.498 64.6487 145.684C64.248 145.862 63.8064 145.951 63.3241 145.951C62.441 145.951 61.7026 145.654 61.1089 145.06C60.5153 144.459 60.2184 143.71 60.2184 142.812C60.2184 141.914 60.5153 141.168 61.1089 140.574C61.7026 139.973 62.441 139.673 63.3241 139.673C63.8139 139.673 64.2591 139.766 64.6599 139.951C65.068 140.137 65.4131 140.396 65.6951 140.73L65.8175 139.806ZM61.8102 144.404C62.2332 144.827 62.7638 145.038 63.402 145.038C64.0402 145.038 64.5671 144.827 64.9827 144.404C65.3982 143.981 65.606 143.45 65.606 142.812C65.606 142.174 65.3982 141.643 64.9827 141.22C64.5671 140.797 64.0402 140.586 63.402 140.586C62.7638 140.586 62.2332 140.801 61.8102 141.231C61.3947 141.654 61.1869 142.181 61.1869 142.812C61.1869 143.443 61.3947 143.973 61.8102 144.404ZM73.111 139.806V140.663H70.8736V145.817H69.9497V140.663H67.7123V139.806H73.111ZM79.1773 139.806H79.9343V145.817H79.1439L79.0437 144.904C78.7617 145.238 78.4167 145.498 78.0085 145.684C77.6078 145.862 77.1663 145.951 76.6839 145.951C75.8008 145.951 75.0624 145.654 74.4688 145.06C73.8751 144.459 73.5782 143.71 73.5782 142.812C73.5782 141.914 73.8751 141.168 74.4688 140.574C75.0624 139.973 75.8008 139.673 76.6839 139.673C77.1737 139.673 77.6189 139.766 78.0197 139.951C78.4278 140.137 78.7729 140.396 79.0549 140.73L79.1773 139.806ZM75.17 144.404C75.593 144.827 76.1236 145.038 76.7618 145.038C77.4 145.038 77.9269 144.827 78.3425 144.404C78.758 143.981 78.9658 143.45 78.9658 142.812C78.9658 142.174 78.758 141.643 78.3425 141.22C77.9269 140.797 77.4 140.586 76.7618 140.586C76.1236 140.586 75.593 140.801 75.17 141.231C74.7545 141.654 74.5467 142.181 74.5467 142.812C74.5467 143.443 74.7545 143.973 75.17 144.404ZM46.914 152.415H49.2404V159.817H48.3277V153.261H46.914V152.415ZM53.1482 155.142C53.6305 155.142 54.0646 155.246 54.4505 155.454C54.8438 155.662 55.1481 155.951 55.3633 156.322C55.5859 156.686 55.6972 157.09 55.6972 157.535C55.6972 158.225 55.4598 158.801 54.9848 159.261C54.5099 159.721 53.9236 159.951 53.2261 159.951C52.5359 159.951 51.9608 159.736 51.5007 159.305C51.0406 158.867 50.7994 158.318 50.7772 157.658H51.6788C51.6937 157.932 51.7679 158.177 51.9014 158.392C52.0424 158.608 52.228 158.775 52.458 158.893C52.6881 159.012 52.9441 159.071 53.2261 159.071C53.6713 159.071 54.0387 158.927 54.3281 158.637C54.6175 158.348 54.7622 157.981 54.7622 157.535C54.7622 157.238 54.6917 156.971 54.5507 156.734C54.4097 156.489 54.2131 156.3 53.9607 156.166C53.7084 156.033 53.4264 155.966 53.1148 155.966H51.2336L51.1 155.81L51.4785 152.415H55.1852V153.261H52.2354L52.035 155.142H53.1482ZM56.9817 161.298V160.763C57.3676 160.63 57.5605 160.314 57.5605 159.817H56.926V158.648H58.0726V159.728C58.0726 160.567 57.7089 161.09 56.9817 161.298ZM61.0759 152.281C61.8476 152.281 62.4784 152.519 62.9682 152.994C63.4654 153.469 63.714 154.073 63.714 154.808C63.714 155.535 63.4506 156.355 62.9237 157.268L61.4432 159.828H60.4302C61.3282 158.27 61.8588 157.324 62.022 156.99C61.6881 157.153 61.3319 157.235 60.9534 157.235C60.2484 157.235 59.6548 157.001 59.1724 156.534C58.69 156.066 58.4489 155.491 58.4489 154.808C58.4489 154.073 58.6938 153.469 59.1835 152.994C59.6807 152.519 60.3115 152.281 61.0759 152.281ZM61.087 156.433C61.4135 156.433 61.7066 156.363 61.9664 156.222C62.2261 156.081 62.4265 155.888 62.5675 155.643C62.7159 155.391 62.7901 155.112 62.7901 154.808C62.7901 154.333 62.6268 153.94 62.3003 153.628C61.9812 153.317 61.5768 153.161 61.087 153.161C60.5898 153.161 60.1779 153.317 59.8514 153.628C59.5323 153.932 59.3728 154.326 59.3728 154.808C59.3728 155.283 59.5323 155.673 59.8514 155.977C60.1779 156.281 60.5898 156.433 61.087 156.433Z" fill="#474A54"/>
<path d="M134.423 198.492C133.266 198.492 132.308 198.113 131.551 197.356C130.802 196.599 130.427 195.638 130.427 194.473C130.427 193.308 130.802 192.347 131.551 191.59C132.308 190.833 133.266 190.455 134.423 190.455C135.017 190.455 135.566 190.57 136.071 190.8C136.583 191.022 137.013 191.342 137.362 191.757C137.718 192.173 137.967 192.659 138.108 193.215H137.117C136.909 192.651 136.568 192.21 136.093 191.891C135.618 191.572 135.062 191.412 134.423 191.412C133.548 191.412 132.828 191.701 132.264 192.28C131.707 192.852 131.429 193.586 131.429 194.484C131.429 195.375 131.707 196.106 132.264 196.677C132.828 197.249 133.548 197.534 134.423 197.534C135.076 197.534 135.644 197.367 136.126 197.033C136.609 196.692 136.95 196.221 137.151 195.62H138.152C137.93 196.503 137.481 197.204 136.805 197.724C136.138 198.236 135.344 198.492 134.423 198.492ZM139.492 192.358H144.59V198.369H143.655V193.226H140.438V198.369H139.492V192.358ZM151.624 192.358H152.381V198.369H151.591L151.491 197.456C151.209 197.79 150.863 198.05 150.455 198.236C150.055 198.414 149.613 198.503 149.131 198.503C148.248 198.503 147.509 198.206 146.916 197.612C146.322 197.011 146.025 196.262 146.025 195.364C146.025 194.466 146.322 193.72 146.916 193.126C147.509 192.525 148.248 192.225 149.131 192.225C149.62 192.225 150.066 192.317 150.466 192.503C150.875 192.688 151.22 192.948 151.502 193.282L151.624 192.358ZM147.617 196.955C148.04 197.378 148.57 197.59 149.209 197.59C149.847 197.59 150.374 197.378 150.789 196.955C151.205 196.532 151.413 196.002 151.413 195.364C151.413 194.725 151.205 194.195 150.789 193.772C150.374 193.349 149.847 193.137 149.209 193.137C148.57 193.137 148.04 193.353 147.617 193.783C147.201 194.206 146.993 194.733 146.993 195.364C146.993 195.994 147.201 196.525 147.617 196.955ZM155.311 192.358H159.252V198.369H158.305V193.182H156.101L155.79 196.221C155.708 197.015 155.504 197.579 155.177 197.913C154.851 198.239 154.361 198.403 153.708 198.403H153.541V197.512H153.753C154.094 197.512 154.354 197.416 154.532 197.223C154.71 197.022 154.821 196.707 154.866 196.276L155.311 192.358ZM163.573 194.251C164.203 194.251 164.719 194.443 165.12 194.829C165.521 195.208 165.721 195.705 165.721 196.321C165.721 196.922 165.521 197.416 165.12 197.801C164.719 198.18 164.203 198.369 163.573 198.369H161.157V192.358H162.081V194.251H163.573ZM163.45 197.523C163.843 197.523 164.159 197.412 164.396 197.189C164.634 196.967 164.753 196.677 164.753 196.321C164.753 195.957 164.634 195.664 164.396 195.442C164.159 195.212 163.843 195.097 163.45 195.097H162.081V197.523H163.45ZM171.157 192.358H172.081V198.369H171.157V195.709H167.94V198.369H167.016V192.358H167.94V194.818H171.157V192.358ZM175.565 192.358H178.325V198.369H177.39V196.065H175.887L174.463 198.369H173.416L174.919 195.931C174.526 195.805 174.214 195.59 173.984 195.286C173.754 194.981 173.639 194.625 173.639 194.217C173.639 193.683 173.821 193.241 174.184 192.893C174.548 192.536 175.008 192.358 175.565 192.358ZM175.643 195.152H177.39V193.271H175.643C175.331 193.271 175.079 193.36 174.886 193.538C174.693 193.709 174.596 193.935 174.596 194.217C174.596 194.492 174.693 194.718 174.886 194.896C175.079 195.067 175.331 195.152 175.643 195.152ZM146.006 211.49H149.167V212.369H144.192V212.069C145.342 210.866 146.177 209.961 146.696 209.353C147.216 208.737 147.557 208.269 147.72 207.95C147.883 207.631 147.965 207.304 147.965 206.97C147.965 206.785 147.932 206.614 147.865 206.458C147.806 206.303 147.716 206.169 147.598 206.058C147.486 205.946 147.349 205.861 147.186 205.802C147.023 205.742 146.845 205.713 146.652 205.713C146.377 205.713 146.136 205.768 145.928 205.88C145.72 205.983 145.561 206.132 145.449 206.325C145.338 206.518 145.282 206.737 145.282 206.982V207.16H144.37V206.982C144.37 206.559 144.462 206.184 144.648 205.857C144.841 205.531 145.108 205.278 145.449 205.1C145.798 204.922 146.199 204.833 146.652 204.833C147.312 204.833 147.85 205.034 148.266 205.434C148.681 205.828 148.889 206.34 148.889 206.97C148.889 207.334 148.822 207.679 148.689 208.006C148.555 208.332 148.28 208.77 147.865 209.319C147.457 209.861 146.837 210.584 146.006 211.49ZM153.101 212.503C152.225 212.503 151.528 212.158 151.008 211.468C150.496 210.777 150.24 209.842 150.24 208.662C150.24 207.482 150.496 206.551 151.008 205.868C151.52 205.178 152.218 204.833 153.101 204.833C153.984 204.833 154.682 205.178 155.194 205.868C155.706 206.551 155.962 207.482 155.962 208.662C155.962 209.842 155.702 210.777 155.183 211.468C154.67 212.158 153.977 212.503 153.101 212.503ZM153.101 211.623C153.702 211.623 154.173 211.364 154.515 210.844C154.863 210.317 155.038 209.59 155.038 208.662C155.038 207.742 154.863 207.022 154.515 206.503C154.173 205.976 153.702 205.713 153.101 205.713C152.708 205.713 152.363 205.831 152.066 206.069C151.776 206.299 151.554 206.636 151.398 207.082C151.242 207.527 151.164 208.054 151.164 208.662C151.164 209.59 151.335 210.317 151.676 210.844C152.025 211.364 152.5 211.623 153.101 211.623ZM157.105 213.85V213.315C157.491 213.182 157.684 212.866 157.684 212.369H157.049V211.2H158.196V212.28C158.196 213.119 157.832 213.642 157.105 213.85ZM163.752 208.406C164.072 208.577 164.324 208.826 164.509 209.152C164.695 209.479 164.788 209.839 164.788 210.232C164.788 210.892 164.543 211.438 164.053 211.868C163.563 212.291 162.932 212.503 162.161 212.503C161.641 212.503 161.181 212.41 160.78 212.224C160.387 212.031 160.083 211.764 159.868 211.423C159.652 211.074 159.545 210.677 159.545 210.232C159.545 209.972 159.586 209.727 159.667 209.497C159.756 209.26 159.879 209.048 160.035 208.863C160.19 208.677 160.376 208.525 160.591 208.406C160.354 208.236 160.164 208.009 160.023 207.727C159.882 207.438 159.812 207.134 159.812 206.815C159.812 206.228 160.027 205.753 160.458 205.39C160.895 205.019 161.463 204.833 162.161 204.833C162.435 204.833 162.695 204.867 162.94 204.933C163.185 204.993 163.4 205.082 163.585 205.201C163.778 205.312 163.942 205.449 164.075 205.612C164.216 205.768 164.324 205.95 164.398 206.158C164.472 206.366 164.509 206.585 164.509 206.815C164.509 207.03 164.476 207.241 164.409 207.449C164.35 207.649 164.261 207.831 164.142 207.995C164.031 208.158 163.901 208.295 163.752 208.406ZM162.161 205.624C161.73 205.624 161.381 205.735 161.114 205.957C160.847 206.18 160.714 206.466 160.714 206.815C160.714 207.178 160.847 207.471 161.114 207.694C161.381 207.917 161.73 208.028 162.161 208.028C162.584 208.028 162.929 207.917 163.196 207.694C163.463 207.471 163.597 207.178 163.597 206.815C163.597 206.466 163.463 206.18 163.196 205.957C162.936 205.735 162.591 205.624 162.161 205.624ZM162.161 211.69C162.665 211.69 163.073 211.557 163.385 211.289C163.704 211.022 163.864 210.677 163.864 210.254C163.864 209.824 163.704 209.479 163.385 209.219C163.073 208.952 162.665 208.818 162.161 208.818C161.663 208.818 161.255 208.952 160.936 209.219C160.625 209.479 160.469 209.824 160.469 210.254C160.469 210.536 160.539 210.785 160.68 211C160.821 211.215 161.022 211.386 161.281 211.512C161.541 211.631 161.834 211.69 162.161 211.69Z" fill="#474A54"/>
<path d="M38.7149 222.955C39.2749 222.955 39.7788 223.075 40.2267 223.316C40.6833 223.558 41.0365 223.894 41.2863 224.324C41.5447 224.746 41.674 225.216 41.674 225.733C41.674 226.534 41.3983 227.201 40.847 227.736C40.2957 228.27 39.6151 228.537 38.8054 228.537C38.0042 228.537 37.3366 228.287 36.8025 227.787C36.2684 227.279 35.9885 226.641 35.9626 225.875H37.0093C37.0265 226.194 37.1126 226.478 37.2677 226.728C37.4314 226.977 37.6467 227.171 37.9138 227.309C38.1808 227.447 38.478 227.516 38.8054 227.516C39.3222 227.516 39.7486 227.348 40.0846 227.012C40.4206 226.676 40.5885 226.25 40.5885 225.733C40.5885 225.388 40.5067 225.078 40.343 224.802C40.1794 224.518 39.9511 224.298 39.6582 224.143C39.3653 223.988 39.038 223.911 38.6762 223.911H36.4924L36.3374 223.73L36.7767 219.789H41.0796V220.771H37.6554L37.4228 222.955H38.7149ZM43.165 230.1V229.48C43.6129 229.325 43.8369 228.959 43.8369 228.382H43.1004V227.025H44.4313V228.278C44.4313 229.252 44.0092 229.859 43.165 230.1ZM49.0161 228.537C47.9996 228.537 47.1899 228.136 46.5869 227.335C45.9925 226.534 45.6953 225.448 45.6953 224.079C45.6953 222.709 45.9925 221.628 46.5869 220.835C47.1813 220.034 47.991 219.634 49.0161 219.634C50.0412 219.634 50.851 220.034 51.4454 220.835C52.0398 221.628 52.337 222.709 52.337 224.079C52.337 225.448 52.0355 226.534 51.4325 227.335C50.8381 228.136 50.0326 228.537 49.0161 228.537ZM49.0161 227.516C49.7139 227.516 50.2609 227.214 50.6572 226.611C51.062 226 51.2645 225.156 51.2645 224.079C51.2645 223.011 51.062 222.175 50.6572 221.572C50.2609 220.96 49.7139 220.654 49.0161 220.654C48.5596 220.654 48.159 220.792 47.8144 221.068C47.4785 221.335 47.22 221.727 47.0391 222.244C46.8582 222.761 46.7678 223.372 46.7678 224.079C46.7678 225.156 46.9659 226 47.3622 226.611C47.767 227.214 48.3184 227.516 49.0161 227.516Z" fill="#474A54"/>
<path d="M116.086 63.6353L113.956 60.8561H113.142V63.6353H112.389V57.5748H113.142V60.1462H113.948L115.887 57.5748H116.857L114.64 60.4925L117.056 63.6353H116.086ZM119.555 63.7391C119.094 63.7391 118.672 63.6353 118.291 63.4275C117.911 63.2139 117.613 62.9224 117.4 62.553C117.186 62.1779 117.079 61.7594 117.079 61.2977C117.079 60.5935 117.313 60.0106 117.781 59.5488C118.254 59.0871 118.846 58.8562 119.555 58.8562C120.023 58.8562 120.444 58.963 120.82 59.1765C121.2 59.3843 121.498 59.6758 121.711 60.051C121.931 60.4204 122.04 60.8359 122.04 61.2977C122.04 61.9961 121.804 62.579 121.33 63.0465C120.857 63.5083 120.265 63.7391 119.555 63.7391ZM118.317 62.5444C118.646 62.8676 119.059 63.0292 119.555 63.0292C120.058 63.0292 120.47 62.8676 120.794 62.5444C121.123 62.2154 121.287 61.7998 121.287 61.2977C121.287 60.7955 121.123 60.3828 120.794 60.0596C120.47 59.7306 120.058 59.5661 119.555 59.5661C119.059 59.5661 118.646 59.7306 118.317 60.0596C117.994 60.3828 117.833 60.7955 117.833 61.2977C117.833 61.7998 117.994 62.2154 118.317 62.5444ZM125.635 58.8562C126.333 58.8562 126.907 59.0871 127.358 59.5488C127.814 60.0106 128.042 60.5935 128.042 61.2977C128.042 61.9961 127.814 62.579 127.358 63.0465C126.907 63.5083 126.333 63.7391 125.635 63.7391C124.931 63.7391 124.351 63.4967 123.895 63.0119V65.3062H123.159V58.9601H123.661L123.808 59.6787C124.027 59.4189 124.293 59.2169 124.605 59.0726C124.922 58.9283 125.265 58.8562 125.635 58.8562ZM125.583 63.0292C126.079 63.0292 126.489 62.8647 126.812 62.5357C127.135 62.2067 127.297 61.794 127.297 61.2977C127.297 60.8013 127.135 60.3886 126.812 60.0596C126.489 59.7306 126.079 59.5661 125.583 59.5661C125.086 59.5661 124.674 59.7335 124.345 60.0683C124.022 60.3973 123.86 60.8071 123.86 61.2977C123.86 61.6209 123.932 61.9153 124.076 62.1808C124.226 62.4463 124.434 62.654 124.7 62.8041C124.965 62.9542 125.26 63.0292 125.583 63.0292ZM132.599 58.9601H133.006V63.6353H132.313V60.2934L129.586 63.6353H129.162V58.9601H129.863V62.276L132.599 58.9601ZM138.41 62.9426H139.042V64.8733H138.367V63.6353H134.6V64.8733H133.925V62.9426H134.427C134.566 62.8157 134.673 62.6367 134.748 62.4059C134.823 62.1692 134.889 61.8114 134.947 61.3323C135.01 60.8475 135.085 60.0567 135.172 58.9601H138.41V62.9426ZM135.83 59.6094C135.778 60.3828 135.723 60.986 135.665 61.4189C135.613 61.846 135.553 62.175 135.484 62.4059C135.414 62.631 135.325 62.8099 135.215 62.9426H137.691V59.6094H135.83ZM142.147 63.7391C141.685 63.7391 141.264 63.6353 140.883 63.4275C140.502 63.2139 140.205 62.9224 139.991 62.553C139.777 62.1779 139.671 61.7594 139.671 61.2977C139.671 60.5935 139.904 60.0106 140.372 59.5488C140.845 59.0871 141.437 58.8562 142.147 58.8562C142.614 58.8562 143.036 58.963 143.411 59.1765C143.792 59.3843 144.089 59.6758 144.303 60.051C144.522 60.4204 144.632 60.8359 144.632 61.2977C144.632 61.9961 144.395 62.579 143.922 63.0465C143.448 63.5083 142.857 63.7391 142.147 63.7391ZM140.909 62.5444C141.238 62.8676 141.65 63.0292 142.147 63.0292C142.649 63.0292 143.062 62.8676 143.385 62.5444C143.714 62.2154 143.878 61.7998 143.878 61.2977C143.878 60.7955 143.714 60.3828 143.385 60.0596C143.062 59.7306 142.649 59.5661 142.147 59.5661C141.65 59.5661 141.238 59.7306 140.909 60.0596C140.585 60.3828 140.424 60.7955 140.424 61.2977C140.424 61.7998 140.585 62.2154 140.909 62.5444ZM148.226 58.8562C148.924 58.8562 149.499 59.0871 149.949 59.5488C150.405 60.0106 150.633 60.5935 150.633 61.2977C150.633 61.9961 150.405 62.579 149.949 63.0465C149.499 63.5083 148.924 63.7391 148.226 63.7391C147.522 63.7391 146.942 63.4967 146.486 63.0119V65.3062H145.75V58.9601H146.252L146.399 59.6787C146.619 59.4189 146.884 59.2169 147.196 59.0726C147.513 58.9283 147.857 58.8562 148.226 58.8562ZM148.174 63.0292C148.67 63.0292 149.08 62.8647 149.403 62.5357C149.727 62.2067 149.888 61.794 149.888 61.2977C149.888 60.8013 149.727 60.3886 149.403 60.0596C149.08 59.7306 148.67 59.5661 148.174 59.5661C147.678 59.5661 147.265 59.7335 146.936 60.0683C146.613 60.3973 146.451 60.8071 146.451 61.2977C146.451 61.6209 146.523 61.9153 146.668 62.1808C146.818 62.4463 147.025 62.654 147.291 62.8041C147.556 62.9542 147.851 63.0292 148.174 63.0292ZM129.16 71.5531C129.408 71.6859 129.604 71.8792 129.748 72.1332C129.893 72.3871 129.965 72.6671 129.965 72.973C129.965 73.4867 129.774 73.9109 129.393 74.2457C129.012 74.5746 128.522 74.7391 127.921 74.7391C127.517 74.7391 127.16 74.667 126.848 74.5227C126.542 74.3726 126.305 74.1649 126.138 73.8993C125.971 73.6281 125.887 73.3193 125.887 72.973C125.887 72.771 125.919 72.5805 125.982 72.4016C126.051 72.2169 126.147 72.0524 126.268 71.9081C126.389 71.7638 126.533 71.6455 126.701 71.5531C126.516 71.4204 126.369 71.2443 126.259 71.025C126.15 70.7999 126.095 70.5632 126.095 70.315C126.095 69.8591 126.262 69.4897 126.597 69.2069C126.937 68.9183 127.379 68.774 127.921 68.774C128.135 68.774 128.337 68.7999 128.527 68.8519C128.718 68.8981 128.885 68.9673 129.03 69.0597C129.18 69.1463 129.307 69.253 129.411 69.38C129.52 69.5012 129.604 69.6426 129.662 69.8042C129.719 69.9659 129.748 70.1361 129.748 70.315C129.748 70.4824 129.722 70.6469 129.67 70.8085C129.624 70.9644 129.555 71.1058 129.463 71.2328C129.376 71.3597 129.275 71.4665 129.16 71.5531ZM127.921 69.3887C127.587 69.3887 127.315 69.4753 127.108 69.6484C126.9 69.8216 126.796 70.0438 126.796 70.315C126.796 70.5979 126.9 70.8259 127.108 70.999C127.315 71.1722 127.587 71.2587 127.921 71.2587C128.25 71.2587 128.519 71.1722 128.727 70.999C128.934 70.8259 129.038 70.5979 129.038 70.315C129.038 70.0438 128.934 69.8216 128.727 69.6484C128.525 69.4753 128.256 69.3887 127.921 69.3887ZM127.921 74.1071C128.314 74.1071 128.631 74.0032 128.874 73.7955C129.122 73.5877 129.246 73.3193 129.246 72.9903C129.246 72.6555 129.122 72.3871 128.874 72.1851C128.631 71.9773 128.314 71.8734 127.921 71.8734C127.535 71.8734 127.217 71.9773 126.969 72.1851C126.727 72.3871 126.605 72.6555 126.605 72.9903C126.605 73.2096 126.66 73.403 126.77 73.5704C126.88 73.7377 127.035 73.8705 127.237 73.9686C127.44 74.061 127.667 74.1071 127.921 74.1071ZM131.057 75.7867V75.3712C131.357 75.2673 131.507 75.022 131.507 74.6353H131.014V73.7262H131.906V74.566C131.906 75.2182 131.623 75.6251 131.057 75.7867ZM135.111 71.051C135.584 71.1202 135.968 71.3222 136.262 71.657C136.557 71.986 136.704 72.3871 136.704 72.8604C136.704 73.403 136.519 73.8532 136.15 74.211C135.78 74.5631 135.322 74.7391 134.773 74.7391C134.242 74.7391 133.801 74.5718 133.449 74.237C133.097 73.9022 132.906 73.4751 132.877 72.9557H133.578C133.602 73.2846 133.723 73.5502 133.942 73.7522C134.161 73.9542 134.438 74.0552 134.773 74.0552C135.004 74.0552 135.212 74.0032 135.397 73.8993C135.581 73.7955 135.726 73.6512 135.829 73.4665C135.933 73.276 135.985 73.0653 135.985 72.8344C135.985 72.4824 135.861 72.1938 135.613 71.9687C135.371 71.7378 135.062 71.6224 134.687 71.6224H134.037V71.4838L135.371 69.5359H133.068V68.8779H136.479V69.0424L135.111 71.051Z" fill="#474A54"/>
<path d="M164.961 68.7965C165.667 68.8998 166.24 69.2013 166.679 69.701C167.119 70.192 167.338 70.7907 167.338 71.4971C167.338 72.3068 167.063 72.9787 166.511 73.5128C165.96 74.0383 165.275 74.3011 164.457 74.3011C163.664 74.3011 163.005 74.0512 162.48 73.5516C161.954 73.052 161.67 72.4145 161.627 71.6392H162.674C162.708 72.1302 162.889 72.5265 163.216 72.828C163.544 73.1295 163.957 73.2803 164.457 73.2803C164.801 73.2803 165.111 73.2027 165.387 73.0477C165.663 72.8926 165.878 72.6772 166.033 72.4016C166.188 72.1173 166.266 71.8029 166.266 71.4583C166.266 70.9328 166.081 70.5021 165.71 70.1662C165.348 69.8216 164.887 69.6493 164.328 69.6493H163.358V69.4425L165.348 66.5352H161.911V65.5532H167.002V65.7987L164.961 68.7965ZM168.93 75.8646V75.2443C169.378 75.0893 169.602 74.7232 169.602 74.146H168.865V72.7892H170.196V74.0426C170.196 75.016 169.774 75.6234 168.93 75.8646ZM174.98 68.7965C175.686 68.8998 176.259 69.2013 176.699 69.701C177.138 70.192 177.358 70.7907 177.358 71.4971C177.358 72.3068 177.082 72.9787 176.531 73.5128C175.979 74.0383 175.294 74.3011 174.476 74.3011C173.683 74.3011 173.024 74.0512 172.499 73.5516C171.974 73.052 171.689 72.4145 171.646 71.6392H172.693C172.727 72.1302 172.908 72.5265 173.236 72.828C173.563 73.1295 173.976 73.2803 174.476 73.2803C174.821 73.2803 175.131 73.2027 175.406 73.0477C175.682 72.8926 175.897 72.6772 176.052 72.4016C176.207 72.1173 176.285 71.8029 176.285 71.4583C176.285 70.9328 176.1 70.5021 175.729 70.1662C175.368 69.8216 174.907 69.6493 174.347 69.6493H173.378V69.4425L175.368 66.5352H171.93V65.5532H177.022V65.7987L174.98 68.7965Z" fill="#474A54"/>
<path d="M160.812 110.216H163.512V118.809H162.453V111.198H160.812V110.216ZM165.71 120.527V119.907C166.157 119.752 166.381 119.386 166.381 118.809H165.645V117.452H166.976V118.705C166.976 119.679 166.554 120.286 165.71 120.527ZM167.651 110.216H170.351V118.809H169.292V111.198H167.651V110.216Z" fill="#474A54"/>
<line x1="207.673" y1="235.624" x2="197.379" y2="235.624" stroke="#474A54" stroke-width="13.2446"/>
<line x1="151.08" y1="56.0383" x2="151.08" y2="43.6241" stroke="#474A54" stroke-width="6.46078"/>
<line x1="87.6162" y1="88.103" x2="110.01" y2="88.103" stroke="#474A54" stroke-width="6.46078"/>
<line x1="111.957" y1="32.5816" x2="97.5955" y2="32.5816" stroke="#474A54" stroke-width="3.23039"/>
<line x1="118.285" y1="123.132" x2="110.009" y2="123.132" stroke="#474A54" stroke-width="3.23039"/>
<line x1="155.926" y1="51.1698" x2="155.926" y2="70.3996" stroke="#474A54" stroke-width="3.23039"/>
<line x1="155.926" y1="85.248" x2="155.926" y2="103.261" stroke="#474A54" stroke-width="3.23039"/>
<line x1="202.754" y1="122.936" x2="137.248" y2="122.936" stroke="#474A54" stroke-width="2.47878"/>
<line x1="202.158" y1="100.902" x2="154.518" y2="100.902" stroke="#474A54" stroke-width="2.47878"/>
<line x1="154.518" y1="53.1166" x2="202.158" y2="53.1166" stroke="#474A54" stroke-width="4.95756"/>
<line x1="155.926" y1="118.352" x2="155.926" y2="123.708" stroke="#474A54" stroke-width="3.23039"/>
<line x1="110.342" y1="98.8794" x2="110.342" y2="62.3671" stroke="#474A54" stroke-width="3.23039"/>
<line x1="110.342" y1="204.035" x2="110.342" y2="117.866" stroke="#474A54" stroke-width="3.23039"/>
<line x1="4.60742" y1="86.5537" x2="110.006" y2="86.5538" stroke="#474A54" stroke-width="3.23039"/>
<line x1="98.5577" y1="32.8252" x2="98.5577" y2="3.45493" stroke="#474A54" stroke-width="3.23039"/>
<line x1="30.6553" y1="202.982" x2="53.2929" y2="202.982" stroke="#474A54" stroke-width="0.646078"/>
<line x1="30.6533" y1="200.547" x2="53.2909" y2="200.547" stroke="#474A54" stroke-width="0.646078"/>
<line x1="53.1277" y1="200.384" x2="53.1277" y2="203.305" stroke="#474A54" stroke-width="0.646078"/>
<line x1="5.74434" y1="69.9128" x2="5.74435" y2="28.7757" stroke="#474A54" stroke-width="0.646078"/>
<line x1="3.30977" y1="69.9128" x2="3.30978" y2="28.7757" stroke="#474A54" stroke-width="0.646078"/>
<line x1="6.06738" y1="70.2359" x2="3.1464" y2="70.2359" stroke="#474A54" stroke-width="0.646078"/>
<line x1="206.808" y1="265.619" x2="206.808" y2="233.244" stroke="#474A54" stroke-width="0.646078"/>
<line x1="104.086" y1="265.619" x2="104.086" y2="233.245" stroke="#474A54" stroke-width="0.646078"/>
<line x1="207.131" y1="265.455" x2="103.923" y2="265.455" stroke="#474A54" stroke-width="0.646078"/>
<line x1="204.373" y1="262.698" x2="204.373" y2="233.244" stroke="#474A54" stroke-width="0.646078"/>
<line x1="106.764" y1="262.698" x2="106.764" y2="233.244" stroke="#474A54" stroke-width="0.646078"/>
<line x1="106.602" y1="262.375" x2="204.698" y2="262.375" stroke="#474A54" stroke-width="0.646078"/>
<path d="M140.923 85.248C141.465 80.2175 145.388 70.1564 156.745 70.1564" stroke="#818181" stroke-width="0.323039"/>
<line x1="156.745" y1="84.9648" x2="140.923" y2="84.9648" stroke="#474A54" stroke-width="0.969117"/>
<path d="M90.5345 63.097C91.2681 56.606 96.5792 43.624 111.955 43.624" stroke="#818181" stroke-width="0.323039"/>
<line x1="111.955" y1="62.5909" x2="90.5345" y2="62.5909" stroke="#474A54" stroke-width="0.969117"/>
<path d="M140.552 102.531C141.102 107.805 145.088 118.353 156.629 118.353" stroke="#818181" stroke-width="0.323039"/>
<line y1="-0.484559" x2="16.0773" y2="-0.484559" transform="matrix(-1 7.16486e-09 -6.15612e-09 1 156.629 103.336)" stroke="#474A54" stroke-width="0.969117"/>
<path d="M91.7516 98.4698C92.4435 105.097 97.4529 118.352 111.955 118.352" stroke="#818181" stroke-width="0.323039"/>
<line y1="-0.484559" x2="20.2035" y2="-0.484559" transform="matrix(-1 7.16486e-09 -6.15612e-09 1 111.955 99.4813)" stroke="#474A54" stroke-width="0.969117"/>
<path d="M129.378 21.7164C130.232 29.0189 136.414 43.6238 154.311 43.6238" stroke="#818181" stroke-width="0.323039"/>
<line y1="-0.484559" x2="24.9321" y2="-0.484559" transform="matrix(-1 8.25693e-08 9.28821e-08 1 154.311 22.8303)" stroke="#474A54" stroke-width="0.969117"/>
<path d="M73.0107 182.371C66.4385 183.088 53.2941 188.278 53.2941 203.305" stroke="#818181" stroke-width="0.323039"/>
<line y1="-0.484559" x2="22.1508" y2="-0.484559" transform="matrix(3.93895e-09 -1 -1 -1.86775e-08 72.4697 204.522)" stroke="#474A54" stroke-width="0.969117"/>
<path d="M117.629 144.398C124.257 143.614 137.514 137.941 137.514 121.517" stroke="#818181" stroke-width="0.323039"/>
<line y1="-0.484559" x2="22.881" y2="-0.484559" transform="matrix(-3.73279e-08 1 1 4.92817e-08 118.642 121.517)" stroke="#474A54" stroke-width="0.969117"/>
<rect x="30.0047" y="5.73088" width="15.6627" height="16.1496" stroke="#474A54" stroke-width="0.646078"/>
<circle cx="34.0623" cy="11.25" r="2.51605" stroke="#474A54" stroke-width="0.323039"/>
<circle cx="41.3651" cy="11.25" r="2.51605" stroke="#474A54" stroke-width="0.323039"/>
<circle cx="34.0623" cy="17.822" r="2.51605" stroke="#474A54" stroke-width="0.323039"/>
<line x1="185.791" y1="99.3662" x2="185.791" y2="122.004" stroke="#474A54" stroke-width="0.646078"/>
<path d="M169.16 97.5826C167.534 97.5826 166.076 97.147 165.035 96.4597C163.991 95.7707 163.397 94.8552 163.397 93.8893C163.397 92.9233 163.991 92.0079 165.035 91.3189C166.076 90.6316 167.534 90.196 169.16 90.196C170.786 90.196 172.243 90.6316 173.285 91.3189C174.329 92.0079 174.922 92.9233 174.922 93.8893C174.922 94.8552 174.329 95.7707 173.285 96.4597C172.243 97.147 170.786 97.5826 169.16 97.5826Z" stroke="#474A54" stroke-width="0.646078"/>
<path d="M180.964 116.652C182.647 116.763 184.324 116.708 185.711 116.558L185.711 106.7C184.419 106.632 182.553 106.602 180.964 106.7M180.964 116.652C176.739 116.373 172.479 115.049 172.688 111.568C172.899 108.059 176.865 106.953 180.964 106.7M180.964 116.652L180.964 106.7" stroke="#474A54" stroke-width="0.323039"/>
<rect x="195.857" y="58.552" width="37.0833" height="16.393" rx="0.323039" transform="rotate(90 195.857 58.552)" stroke="#474A54" stroke-width="0.646078"/>
<rect x="90.4572" y="5.24406" width="15.4193" height="10.551" rx="0.646078" transform="rotate(90 90.4572 5.24406)" stroke="#474A54" stroke-width="0.646078"/>
<line x1="6.65211" y1="29.4875" x2="6.65211" y2="2.11981" stroke="#474A54" stroke-width="13.2446"/>
<path fill-rule="evenodd" clip-rule="evenodd" d="M13.2446 191.52L13.2446 67.9655L5.96046e-06 67.9655L0 204.765H3.75146H13.2446H33.935V191.52H13.2446Z" fill="#474A54"/>
<line x1="202.067" y1="237.139" x2="202.067" y2="51.1698" stroke="#474A54" stroke-width="6.46078"/>
<line x1="153.628" y1="22.9337" x2="153.628" y2="2" stroke="#474A54" stroke-width="6.46078"/>
<line x1="3.26367" y1="3.63777" x2="160.753" y2="3.63779" stroke="#474A54" stroke-width="6.46078"/>
<path fill-rule="evenodd" clip-rule="evenodd" d="M114.504 204.765L114.505 204.765L114.505 191.52L75.0716 191.52L75.0716 204.765L101.259 204.765L101.259 238.843L114.504 238.843L114.504 204.765Z" fill="#474A54"/>
<path d="M106.473 235.922L5.4553 235.922L5.4553 203.548" stroke="#474A54" stroke-width="0.646078"/>
</svg>
